<?xml version="1.0" encoding="utf-8"?>
<!-- Generator: Adobe Illustrator 19.0.0, SVG Export Plug-In . SVG Version: 6.00 Build 0)  -->
<svg version="1.1" id="Capa_1" xmlns="http://www.w3.org/2000/svg" xmlns:xlink="http://www.w3.org/1999/xlink" x="0px" y="0px"
	 viewBox="0 0 447.6 144.5" style="enable-background:new 0 0 447.6 144.5;" xml:space="preserve">
<style type="text/css">
	.st0{fill:#4F4D4E;}
	.st1{fill:#FFFFFF;}
	.st2{fill:#707272;}
	.st3{fill:#F9F9F9;}
</style>
<g id="XMLID_2_">
	<g id="XMLID_10_">
		<path id="XMLID_9_" class="st0" d="M52.7,60.7c0,0-2.6-6.5,1.8-16.2c0,0,2.8-6.2,2.8-16.8c0,0,4.7,5.3,6.6,11.4
			c0,0,1.8,4.2,1.5,10.4c0,0-0.3,8.9-3.4,11.1c0,0,18.5-7.5,15.8-24.6c0,0-2.5-11-12.7-21.1c0,0-7.6-8.8-8-15c0,0-4,12.3-11,21.6
			C46.1,21.6,29.3,38.3,52.7,60.7z"/>
		<path id="XMLID_8_" class="st1" d="M57.8,99.9c0,0,47-11,45.2-25.9c0,0,0-9.7-20.2-9.7c0,0-16.1,1.3-21.4,4.8V82v0.1v0.1
			c0,0.6-0.5,1.1-1.1,1.1h-4.9c-0.6,0-1.1-0.5-1.1-1.1v-0.1V82V69.1c-5.3-3.5-21.4-4.8-21.4-4.8c-20.3,0-20.2,9.7-20.2,9.7
			C10.9,88.9,57.8,99.9,57.8,99.9z"/>
		<path id="XMLID_4_" class="st2" d="M111.3,86.9c-3.4,3.6-9,8.7-17.5,13c0,0-19.5,9.5-36.2,12c-16.7-2.5-36.2-12-36.2-12
			c-8.5-4.3-14.2-9.4-17.5-13C3.2,86.2,0,82.2,0,74.9v7.2v7.4v25.8c16.1,20.1,54,28.4,57.6,29.1c3.5-0.7,41.5-9,57.6-29.1V89.5v-7.4
			v-7.2C115.1,82.2,111.9,86.2,111.3,86.9z"/>
	</g>
	<g id="XMLID_3_">
		<path id="XMLID_11_" class="st3" d="M130.8,57.2V57c0.2-0.2,0.5-0.3,0.9-0.3c0.3-0.3,0.7-0.5,1.3-0.8c0.8-0.4,1.3-0.6,1.5-0.6
			c0.1,0,0.4,0.1,0.7,0.3c0.3-0.2,0.5-0.3,0.6-0.4c0.2-0.1,0.4-0.2,0.6-0.3c0.3,0.3,0.8,0.6,1.3,0.7c1,0.2,1.6,0.3,1.9,0.3
			c0,0,0.1,0,0.1,0l1.7-0.2l1.5,1.3c0.6-0.7,1-1.1,1-1.1c0.2,0,0.4,0.1,0.8,0.4c0.1,0.1,0.2,0.1,0.3,0.1l0.6,0l1.7,0.3l1.1-0.1
			l1.1,0.2l1.1,0l1.7,0.1l0.8-0.2l1.5,0.1l0.7,0h0.8l2.5-0.4c1.2,0.1,1.9,0.2,2.2,0.2c0.6,0,1-0.1,1.2-0.2c0.3-0.1,0.5-0.2,0.7-0.3
			l4.2-0.9c0,0.1,0,0.2,0,0.3c0,0.1-0.1,0.2-0.2,0.5c-0.2,0.5-0.3,0.7-0.4,0.9c-0.1,0.1-0.3,0.3-0.6,0.6c-0.7,0.6-1.3,1.1-1.7,1.6
			c-0.3-0.4-0.5-0.6-0.7-0.6h-0.6c0,0-0.3-0.3-0.8-0.9l0,0c-0.1,0-0.3,0.4-0.5,1v0.4c-0.5-0.2-0.7-0.3-0.8-0.4
			c-0.2-0.3-0.5-0.6-0.7-1c0,0,0-0.1-0.1-0.1l-1.6,1.2c-0.1,0.1-0.2,0.1-0.3,0.1c-0.4,0-0.9,0-1.6-0.1c-0.2,0-0.6,0-1.1-0.1
			c-0.2-0.4-0.5-0.5-0.8-0.5h-0.1c-0.3,0-0.6,0-0.7,0c-0.2,0-0.6,0.1-1.2,0.3c-0.3,0.1-0.8,0.2-1.4,0.2c-0.2,0-0.8-0.1-1.6-0.4
			l-0.7,0.1h-0.8c-0.4,0.2-0.7,0.3-0.7,0.3s-0.8-0.2-2.5-0.5l-0.7-0.8l-0.8,1.1l-1.4-1.3l-0.4,0.8c-0.3,0.5-0.7,0.8-1.2,0.8h-0.1
			c-0.2,0-0.4-0.1-0.7-0.4c-0.5-0.6-0.9-0.9-1.2-0.9c-0.3,0-0.6,0.5-0.8,1.4l0.1,0.1l-2.4,2.6l2.3,0.7l0,0.8v0.4
			c0,0.2-0.2,0.4-0.4,0.8l0.5,0.5l0.1,2.5c0.5,0,0.8-0.1,1-0.1c0.4,0,1.3,0.1,2.7,0.4l3.2,0.1l0.7,0.3l0.9-0.3
			c0.8,0.1,1.2,0.2,1.4,0.2c0.2,0,0.5-0.1,0.8-0.3c0.1,0,0.1,0,0.2,0c0.1,0,0.3,0.1,0.6,0.2l0.1-0.3c0.2,0,0.3-0.1,0.3-0.1l1.7,0.2
			c0.8,0,1.2,0,1.2,0c0.1,0,0.2-0.2,0.6-0.5l0.2,1c0.1,0.1,0.1,0.2,0.3,0.2c0.1,0,0.7-0.3,1.8-1c0.2-0.1,0.4-0.2,0.5-0.2
			c0,0,0.4,0.1,1,0.3c0.1,0,0.1,0,0.2,0c0.3,0,0.6-0.1,0.9-0.2c0.5-0.2,1.6-0.4,3.2-0.6c1.1-0.3,1.9-0.5,2.3-0.6c0,0.1,0,0.2,0,0.3
			c0,0.3,0,0.6-0.1,0.7c-0.1,0.2-0.3,0.3-0.7,0.5l0.1,0.9c-0.5,0.3-1,0.7-1.4,1.1c-0.5,0-0.9,0-1,0c-0.9,0-1.5-0.1-1.9-0.3
			c-0.4-0.2-0.8-0.3-1.2-0.5c-0.5,0.3-0.8,0.5-1.1,0.5c-0.1,0-0.8,0-2,0.1l-0.6,0c-0.7-0.2-1.1-0.2-1.3-0.2c-0.2,0-0.3,0-0.5,0
			c-0.9,0.1-1.4,0.2-1.5,0.2c0,0-0.4,0-1.1-0.1c-0.1,0-0.2,0-0.3,0c-0.2,0-0.5,0-1,0.1c-0.2,0-0.3,0-0.5,0c-0.1,0-0.5-0.1-1-0.2
			l-1.6,0.3l-0.9-0.1l-0.9,0.1h-0.7l-1,0.1c-0.6-0.2-1.1-0.4-1.5-0.4l-0.1,0.1l-0.1,0.6l-1.4-0.2c-0.1,0.1-0.1,0.3-0.1,0.7
			c-0.1,0.4-0.1,0.6-0.1,0.6c0,0.2,0,0.5,0.1,0.9c0.1,1.3,0.1,2.1,0.1,2.6c-0.2,0.2-0.4,0.2-0.6,0.3c-0.2,0.2-0.3,0.4-0.3,0.6
			c0,0.4,0.3,0.7,0.8,1c-0.8,0.3-1.4,0.6-1.7,0.9c-0.2,0.3-0.3,0.7-0.3,1.4c0,0.7,0.3,1.3,0.9,1.5c0.8,0.4,1.2,0.6,1.2,0.7l0,0.1
			c-0.3,0.5-0.4,0.9-0.4,1.1c0,0.2,0,0.4,0.1,0.6l0.4,0.3l0.1,0.3l-0.2,0.2c-0.2,0-0.4,0.1-0.5,0.2c0.1,0.2,0.2,0.4,0.5,0.5
			c0,0.2,0,0.3,0,0.4l0.1,4c0,0.2-0.1,0.4-0.2,0.5c0,0-0.3,0.3-0.8,0.7c-0.1,0.1-0.1,0.1-0.1,0.3c0,0.3,0.3,0.6,1,0.6l0.1,2.3
			l0.1,4.2c0.1,0.6,0.2,0.9,0.2,1c0,0.4-0.3,0.8-0.8,1.2c0.2,1.1,0.5,1.7,1,1.6c0,0.5,0,0.8,0,1c0.1,1.1,0.1,1.7,0.1,1.9
			c0,0.5-0.2,0.8-0.5,0.8c-0.2,0-0.4,0-0.6-0.1c0,0.5-0.1,0.7-0.2,0.8c0,0-0.2,0.1-0.5,0.2l-0.8,0.3l-1.1,0.3l-0.9,0.3
			c-0.1,0-0.4-0.1-0.7-0.4c0.1-0.2,0.1-0.3,0.1-0.3c0-0.2-0.1-0.4-0.4-0.8c0.2-0.3,0.4-0.7,0.7-1.3c0.3-0.4,0.4-0.7,0.4-0.8
			c0-0.1,0-0.3,0-0.7c0.2-1.2,0.3-2.3,0.3-3.4c0-0.1,0-0.3-0.1-0.7c0.1-0.1,0.2-0.1,0.3-0.1c0.2,0,0.4,0.1,0.6,0.2l-0.2-0.5
			c-0.2-0.1-0.3-0.1-0.4-0.1c-0.2-0.1-0.4-0.1-0.4-0.2c-0.1-0.1-0.1-0.5-0.1-1.2c0-1.1,0-1.7,0-1.7c0-0.1,0.2-0.3,0.5-0.5
			c0-0.1-0.1-0.2-0.1-0.4c0-0.1,0.1-0.3,0.3-0.4l0.1,0.1l0.2-0.2v-0.7l-0.2,0.1l-0.1-0.5c-0.1,0-0.2,0-0.2,0c-0.3,0-0.5-0.1-0.5-0.4
			v-0.1c0-0.3,0-0.5,0-0.8c0-0.3,0.1-0.9,0.1-1.9c0.2-0.4,0.3-0.6,0.3-0.6c0-0.1-0.1-0.3-0.2-0.5c0.3-0.3,0.4-0.6,0.4-0.9
			c0-0.2-0.1-0.4-0.4-0.6c0-0.5,0-0.8,0-1c0-0.3,0-0.5,0-0.8c0-0.3,0.1-0.5,0.1-0.6c0-0.1-0.1-0.4-0.2-0.9c-0.1-0.2-0.1-0.5-0.1-0.8
			c0-0.4,0.2-0.7,0.5-0.8v-0.5h0.1l0.4-0.4l-0.3-0.9l-0.4-0.1c-0.2-0.4-0.3-0.7-0.3-0.8c0-0.1-0.1-0.8-0.1-2.1l-0.2-1l-0.1-0.8
			c-0.1-0.6-0.1-1-0.1-1c0-0.4,0-0.8,0.1-1.4c0.4,0,0.6,0,0.6-0.2c0-0.1,0.1-0.3,0.2-0.7l-0.8-1.7c0.1-0.4,0.2-0.7,0.2-0.9
			c0-0.1-0.1-0.5-0.2-1.2l-0.2-1.4l-0.3-1.3l-0.1-1.5l-0.2-0.9l0.1-0.8V61c0-0.2-0.2-0.6-0.5-1.2c-0.1-0.2-0.2-0.6-0.2-1
			c0-0.2,0-0.5,0-0.8l-0.9,0.2L130.8,57.2z"/>
		<path id="XMLID_13_" class="st3" d="M175.1,86.3l-0.8,0.4c0.1,0.5,0.2,0.7,0.2,0.9c0,0.2,0.1,0.3,0.1,0.3c0,0.1,0,0.3-0.1,0.7
			c-0.1,0.4-0.1,1.1-0.1,2c0,0.1,0.1,0.4,0.3,0.9l-0.1,0.9l0.1,1c0.1,0.9,0.4,1.5,0.9,1.9c0.2,0.1,1.1,0.4,2.6,0.9
			c0.6,0.2,1.1,0.3,1.4,0.3c0.9,0,1.5-0.1,1.7-0.4l1.1-1c0.1-0.1,0.3-0.2,0.7-0.4c0.3,0.2,0.6,0.4,0.8,0.4c0.1,0,0.2,0,0.3,0
			c0.2-0.4,0.3-0.6,0.4-0.7c0,0,0.3-0.2,0.7-0.4c0.1-0.1,0.4-0.5,1-1.4c0.5-0.4,0.8-0.7,0.8-0.7c0.1-0.1,0.2-0.5,0.4-1
			c0.2-0.5,0.2-0.8,0.3-1.1v-0.1c0-0.4-0.1-0.6-0.1-0.8v-0.1c0-0.1,0.1-0.4,0.2-0.9l-0.4-0.2l-0.2-0.4v-3.8c0-0.4-0.1-1.1-0.3-2.1
			c0,0,0-0.1,0-0.1c0-0.2,0.2-0.5,0.5-0.8c-0.1-0.2-0.1-0.3-0.2-0.4l-0.3-0.1c-0.1,0-0.1-0.3-0.1-0.7c0-0.1,0-0.2,0.1-0.3
			c0.1-0.3,0.1-0.6,0.2-0.9c0.3,0.1,0.5,0.2,0.6,0.2c0.2,0,0.7-0.2,1.5-0.5c0.2-0.1,0.6-0.2,1-0.3c0.3,0.9,0.4,1.4,0.4,1.7l-0.2,2.9
			v1.7c-0.1,1.3-0.3,2.1-0.3,2.5l-0.5-0.2c-0.2,0.4-0.3,0.7-0.3,0.8c0,0.1,0,0.2,0,0.4l0.8-0.1c0.1,0.3,0.1,0.5,0.1,0.7l0,0.7v0.3
			v0.8v0.4c0,0.6-0.1,1.3-0.2,1.9c0.2,0.3,0.4,0.4,0.4,0.5c0,0.1,0.1,0.6,0.1,1.3c0,0.5,0.1,0.8,0.3,1.1c0.1,0.2,0.4,0.3,0.7,0.5
			c-0.1,0.3-0.2,0.5-0.4,0.6c-0.1,0.1-0.6,0.3-1.4,0.6c-0.8,0.5-1.3,0.7-1.4,0.7c-0.2,0-0.3-0.1-0.5-0.3c-0.2-0.3-0.3-0.7-0.3-1.1
			c0-0.2,0-0.5,0-0.8c-0.3-0.1-0.6-0.1-0.9-0.1c-0.1,0-0.2,0-0.4,0.1c0,0-0.3,0.2-0.7,0.6l-0.5,0.2l-0.9,0.5l-0.8,0.3
			c-1.1,0.5-2.3,0.8-3.5,0.9c-0.6,0.2-1,0.3-1.1,0.3c-0.1,0-0.4-0.1-1-0.3c-0.1,0-0.1,0-0.2,0c-0.2,0-0.5,0.1-0.9,0.4l-0.8-0.9
			l-0.1,0c0,0-0.4,0.1-1.1,0.3c-0.1,0-0.2,0.1-0.4,0.1c-0.2,0-0.8-0.2-1.6-0.7c-0.4-0.2-0.7-0.5-0.9-1c-0.4-0.7-0.5-1.3-0.5-1.8
			c0-0.2,0.1-0.4,0.4-0.7l-0.6-0.3v-3c0.3-0.3,0.5-0.6,0.5-0.9c0-0.1-0.1-0.4-0.4-0.9v-1.8l-0.1-1.3c0-0.2,0.2-0.5,0.4-0.7v-0.4
			l-0.7,0.2c0.1-1,0.2-1.7,0.2-2.2c0-0.3,0-0.5,0-0.8l-0.1-0.6c0-0.5-0.1-0.8-0.1-0.9l-0.3-0.7c0-0.2,0.3-0.3,0.8-0.5
			c0.3-0.1,0.9-0.3,1.8-0.6l0.2-0.1c0.3-0.2,0.5-0.3,0.7-0.3c0.2,0,0.3,0.1,0.5,0.2c0.1,0.1,0.2,0.4,0.4,1c0,0-0.1,0.2-0.2,0.6
			c-0.1,0.4-0.2,1.1-0.2,2c0,0.2,0.1,0.6,0.2,1.2c-0.3,1-0.4,1.6-0.4,1.8C174.5,84.8,174.7,85.4,175.1,86.3z"/>
		<path id="XMLID_15_" class="st3" d="M213.5,78.2l0.8-0.5c0.3,0.3,0.4,0.5,0.5,0.6c0,0,0.2,0.1,0.5,0.3c0.2,0.1,0.9,0.8,2.2,2.2
			c0.4,0.4,0.7,0.8,0.9,1.2c0.1,0.3,0.3,0.7,0.4,1.2c0.1,0.2,0.2,0.6,0.4,0.9l-0.2,0.2c-0.2,0-0.5-0.1-0.8-0.2l-1,0.4l-0.9-0.2
			l-0.8,0.2c-1.1-0.8-1.6-1.1-1.7-1.1c-0.1,0-0.5,0.4-1.2,1.1c-1.1-0.2-1.7-0.3-1.8-0.3c-0.3,0-0.6,0-1,0.1l-0.1-0.1
			c-0.3,0-1,0.1-2.3,0.1l-1,0.1l-1.2,0.1l-1.2,0.2l-1.1,0c-1,0.3-1.7,0.5-2.1,0.5c-0.1,0.6-0.2,1-0.3,1.2c-0.1,0.3-0.3,0.5-0.6,0.9
			c0.6,0.4,0.9,0.7,0.9,0.8c0.2,1.1,0.3,1.9,0.5,2.2l0.5,0.3l-0.1,1l0.8,0.2c0.2,0.7,0.4,1.2,0.7,1.4c0.3,0.2,0.7,0.4,1.3,0.5
			c0.1,0.5,0.2,0.9,0.4,1c0.1,0.1,0.5,0.2,0.9,0.2l0.4,0.7c0.2,0,0.4-0.1,0.5-0.1c0.1,0,0.6,0.2,1.6,0.7c0.2,0.1,0.4,0.2,0.7,0.2
			c0.2,0,0.7-0.1,1.3-0.3l1.7-0.2l1.3-0.4c0.6,0,1-0.1,1.2-0.2c0.3-0.1,0.8-0.4,1.6-0.9c0.8-0.5,1.2-0.8,1.3-1
			c0.3-0.4,0.6-0.8,0.9-1.3c0.1-0.2,0.4-0.3,0.7-0.3c0.2,0,0.4,0.1,0.7,0.3c-0.1,0.6-0.2,1-0.3,1.2c-0.7,1.2-1.2,2.1-1.4,2.5
			c-0.2-0.1-0.4-0.2-0.6-0.2c-0.1,0-0.4,0.2-0.9,0.5c-0.3,0.2-0.7,0.3-1.2,0.4c-1.1,0.3-1.8,0.5-2.2,0.5c-0.7,0.1-1.2,0.1-1.4,0.2
			c-0.5,0.2-0.8,0.3-0.8,0.3l-1.5-0.2l-0.9,0.2l-0.4,0c-0.4,0.1-0.7,0.1-1,0.1c-0.2,0-0.9-0.1-1.9-0.2l-0.5-0.1l-0.5-0.3
			c-1.3-0.4-2-0.6-2.2-0.7c-0.1-0.1-0.4-0.3-0.9-0.8c0,0-0.3-0.2-0.9-0.6c-0.5-0.3-0.7-0.5-0.8-0.7l-0.5-0.8c-0.1-0.1-0.4-0.5-0.9-1
			c0.2-0.3,0.3-0.5,0.3-0.6c0-0.1-0.2-0.5-0.7-1.5c-0.1-0.2-0.2-1-0.2-2.2c0-0.4,0.1-1,0.4-1.9c0.2-0.7,0.4-1.1,0.4-1.2l0.9-1
			l0.6-1.2c0.6-0.6,1.3-1.2,2-1.9l1.9-1.2l1.9-1.3l0.7-0.1l2-0.6l1.3-0.1c1-0.4,1.6-0.6,1.7-0.6C212.5,76.8,213.2,77.2,213.5,78.2z
			 M210.5,82.1l0.4,0.5c0.3-0.1,0.6-0.1,0.7-0.1c0.5-0.1,0.9-0.2,1.4-0.4l1.5,0.1c0,0,0.1-0.1,0.1-0.3c0-0.1,0-0.2,0-0.3
			c0-0.2-0.1-0.3-0.3-0.6c0,0-0.1-0.1-0.3-0.3c-0.4-0.6-0.7-0.8-0.8-0.8l-0.9-0.4c-0.1-0.1-0.3-0.3-0.5-0.6
			c-0.5-0.1-1.4-0.1-2.6-0.1l-0.5,0l-0.9,0.5c0,0-0.5,0.2-1.4,0.4c-0.7,0.3-1.4,0.5-1.9,0.8c-0.1,0.1-0.5,0.4-1,0.9
			c-0.1,0.1-0.3,0.2-0.6,0.5v0.2l0.1,0.1l1.9,0.8l0.6,0.6l1-1.2c0.1-0.1,0.2-0.1,0.3-0.1c0.1,0,0.5,0.1,1.3,0.3c0,0,0,0,0.1,0
			c0.2,0,0.7-0.1,1.5-0.3C209.9,82.1,210.1,82.1,210.5,82.1z"/>
		<path id="XMLID_18_" class="st3" d="M225.9,79.6c0.1-0.3,0.3-0.6,0.5-0.9c0.2-0.2,0.6-0.5,1.4-0.8c0.7-0.5,1.2-0.7,1.3-0.7
			c0.3,0,0.5,0.1,0.7,0.3l0.1,0.4l0.2,0.8c-0.1,0.2-0.1,0.3-0.1,0.4c0,0.2,0.1,0.3,0.3,0.5c0.3-0.1,0.8-0.3,1.4-0.7l1.1-0.4l1.1-0.7
			l0.7-0.3c0.4-0.2,0.6-0.3,0.6-0.3l0.6,0.1c0,0,0.1,0,0.1,0c0.1,0,0.7-0.2,1.8-0.5c0.1,0,0.4-0.1,0.8-0.1c0.3,0,0.5,0,0.6,0.1
			c0,0,0.2,0.2,0.5,0.5c0.2,0.1,0.3,0.1,0.4,0.1c0,0,0.3-0.1,0.8-0.4c0,0,0.1,0,0.1,0c0.2,0,0.5,0.1,0.8,0.4
			c0.3,0.2,0.5,0.6,0.6,1.1c-0.3,0.3-0.8,0.7-1.6,1.2c-0.4,0.5-0.7,0.7-0.8,0.7c-0.3,0-0.6-0.3-1.1-0.8c-0.3,0-0.6,0.1-0.8,0.1
			c-0.2,0-0.6-0.1-1.1-0.3c-0.4-0.2-0.8-0.3-1.3-0.3c-0.2,0.3-0.5,0.5-0.9,0.6c-0.5,0-0.8,0.1-0.9,0.1l-1,0.3
			c-0.1,0-0.2-0.1-0.4-0.2c-0.3,0.3-1,0.8-1.8,1.4c-0.6,0.4-0.8,1.1-0.8,2.1v0.1c0,0.2,0,0.5,0,0.8c0,0.3,0,0.6,0,0.8
			c0,0.2-0.2,0.5-0.6,0.9c0.3,0.3,0.4,0.6,0.4,0.8c0,0.1,0,0.3-0.1,0.4l0.4,0.1l0.1,0.8l0.1,4.7l-0.1,0.3l-0.7,0.4
			c-1,0.2-1.5,0.3-1.5,0.4c0,0.1,0.5,0.2,1.6,0.3l0.4-0.1c0.2,0.6,0.3,1,0.3,1.2c0,0.4-0.2,0.7-0.6,0.9c-0.2,0.1-0.6,0.2-1.3,0.3
			c-0.1,0-0.5,0.3-1.1,0.7c-0.1,0.1-0.2,0.1-0.4,0.1c-0.4,0-0.6-0.2-0.6-0.5c0-0.1,0.1-0.6,0.4-1.5c0-0.1,0.1-0.2,0.1-0.3
			c0,0,0-0.4-0.1-1.2c0-0.1,0-0.2,0.1-0.4l0.6-0.2c0-0.2,0-0.3,0-0.4c0-0.2-0.1-0.5-0.4-0.8c0-0.2,0-0.5,0-0.7
			c0-0.2-0.1-0.6-0.2-1.2c0.1-0.6,0.1-1.1,0.1-1.5c0.6-0.2,1-0.5,1-0.8c0-0.1,0-0.2-0.1-0.4c-0.2,0.1-0.4,0.1-0.5,0.1
			c-0.1,0-0.3-0.1-0.4-0.2c0-0.3,0-0.7,0-1.1v-0.5V85v-0.2c0-0.1,0-0.3,0-0.5c0-0.2,0-0.3,0-0.4c0-0.3,0.1-0.7,0.3-1.1
			c-0.2-0.2-0.4-0.4-0.4-0.5c0-0.1-0.1-0.6-0.1-1.7C226.5,80.4,226.3,80.1,225.9,79.6z"/>
		<path id="XMLID_20_" class="st3" d="M241.3,96.6l0.3-0.3L244,93c0.3-0.4,0.6-0.7,1.1-1.1c0.5-0.4,0.8-0.7,0.9-0.8
			c0.1-0.2,0.3-0.4,0.5-0.8c0.2,0,0.4,0.1,0.5,0.1c0.3,0,0.6-0.3,1-0.9l-0.2-0.6c0.3-0.4,0.6-0.7,0.8-0.9c0.2-0.2,0.5-0.6,0.9-1.1
			c0.5-0.6,0.9-1.1,1.3-1.7l0.6-0.1c0.2-0.1,0.3-0.3,0.3-0.7c0.1-0.4,0.2-0.7,0.3-0.8s0.4-0.5,1.1-1.3c0.7-1.2,1.1-1.9,1.4-2.3
			c-0.3-0.5-0.7-0.9-1.1-1.2c-0.2-0.2-0.3-0.2-0.3-0.2l-3,1.1l-1.8-1l-1.1-0.2l-0.7-0.3l-0.8,0.5l-1.8,0.2c-0.2,0.1-0.5,0.4-1,0.9
			c-0.2-0.2-0.3-0.3-0.3-0.5c0-0.2,0.3-0.5,1-1c0.2-0.2,0.6-0.6,1.2-1.3c0.5,0,0.8,0,1,0.1c0.2,0.1,0.4,0.1,0.4,0.1
			c0.1,0,0.3-0.1,0.6-0.2c0.4,1.1,0.8,1.7,1.3,1.7c0.2,0,0.3-0.1,0.3-0.2l0.6-1l0.7,0.1l0.7-0.1l0.5,0.1l0.7,0.1l1,0.4l0.5,0l1-0.1
			l1-0.2l0.8,0.1l0.8-0.2c0.6,0,1-0.1,1.3-0.1c0.3-0.1,0.6-0.1,1-0.2c0.3,0.3,0.5,0.6,0.5,0.8c0,0.2-0.3,0.6-0.8,1.3
			c-0.8,1-1.3,1.6-1.5,2l-1,0.1c0,0.4,0,0.6-0.1,0.7c-0.1,0.1-0.3,0.4-0.7,0.8c-0.5,0.5-0.8,0.9-1,1.3l-0.7,0.3v0.2
			c0,0.4,0,0.6-0.1,0.7c0,0.1-0.3,0.4-0.8,0.9c-0.6,0.8-0.9,1.3-1,1.3c-0.2,0.1-0.4,0.3-0.8,0.5v0.6c0,0.1-0.1,0.2-0.4,0.5
			c-1.1,1.5-1.7,2.3-1.9,2.4c-0.2,0.2-0.6,0.2-1,0.2c-0.2,0.3-0.3,0.6-0.3,0.8c0,0.1,0,0.2,0.1,0.5c-0.3,0.5-0.7,1-1,1.7
			c0.5,0.1,0.7,0.1,0.9,0.1c1.3,0.1,2.2,0.3,2.8,0.5c0.3-0.2,0.5-0.3,0.6-0.3l2.7-0.1l3.3-0.2c0.1,0,0.3,0,0.7,0.2
			c0.3,0.1,0.9,0.2,1.6,0.3l0.1-0.1l0.1-0.5c0.9-0.2,1.6-0.4,2.2-0.5c0.1,0.2,0.1,0.5,0.1,0.6c0,0.1-0.1,0.3-0.3,0.6
			c-0.2,0.3-0.4,0.6-0.5,0.9h-0.3c-0.2,0.6-0.4,0.9-0.6,1c-0.1,0-0.3,0.1-0.7,0.1c-0.4,0.1-0.7,0.1-0.8,0.1c-0.1,0-0.6-0.1-1.4-0.4
			l-2.6,0l-1.6-0.5l-0.8,0.2l-1.1,0.1c-0.4,0.1-0.6,0.1-0.7,0.1c-0.1,0-0.5-0.1-1.3-0.2c-0.7,0.2-1.3,0.4-1.9,0.4h-1.1h-0.5
			c-0.2,0-0.7,0-1.4,0.1h-0.8c-0.3,0-0.6,0-0.7,0c-0.1,0-0.2,0-0.3,0c-0.1,0-0.3-0.1-0.4-0.2c-0.2-0.1-0.2-0.2-0.2-0.3V96.6z"/>
		<path id="XMLID_22_" class="st3" d="M269.6,88.2c0.2-0.3,0.4-0.6,0.6-0.7c0.1-0.1,0.7-0.2,1.6-0.4c0.7-0.3,1.1-0.5,1.3-0.6
			c0.2,0,0.7-0.1,1.6-0.2l0.8-0.3L276,86l0.5-0.1h1l2.1-0.3c0.6-0.1,1-0.1,1.1-0.2c0.3-0.2,0.5-0.6,0.5-1c0-0.1-0.1-0.4-0.2-0.8
			l1.4-1.7c0,0-0.5-0.2-1.6-0.5c-0.1,0-0.3-0.1-0.8-0.1c-0.7-1-1.2-1.5-1.3-1.6c-0.2-0.1-0.8-0.2-2-0.4h-0.8
			c-0.4-0.1-0.6-0.2-0.8-0.2c-0.1,0-0.3,0-0.6,0.1l-0.5-0.6c-0.4,0.1-0.7,0.3-0.9,0.6c-0.2,0.2-0.4,0.4-0.8,0.5
			c-0.9,0.4-1.7,0.8-2.2,1.3l-0.4,0.2c-0.2,0.3-0.4,0.5-0.4,0.5c-0.2,0.1-0.5,0.2-0.7,0.2c-0.1,0-0.4-0.1-1-0.3
			c-0.6-0.1-1-0.3-1.1-0.3c-0.2-0.1-0.4-0.3-0.6-0.7c0.3-0.2,0.5-0.4,0.6-0.5c0.3-0.3,0.5-0.4,0.6-0.4l1.2-0.3l0.8-0.4l1.7-0.5
			l1-0.4h1.1l1.2-0.3l0.5,0l0.9-0.2c0.9,0,1.4,0,1.6,0c0.2,0,0.7,0.1,1.4,0.4l0.6,0.1c0.7,0.1,1.2,0.2,1.4,0.3
			c0.2,0,0.6,0.2,0.9,0.6c-0.3,0.3-0.4,0.5-0.4,0.7c0,0.2,0.1,0.4,0.3,0.4c0.1,0,0.3-0.1,0.6-0.2c0.2-0.1,0.4-0.1,0.7-0.2
			c0.2,0.2,0.3,0.5,0.4,0.9l0.7,0.5c0,0.2,0.1,0.3,0.1,0.4l-0.1,1c0.2,0.8,0.4,1.2,0.6,1.4h0.1c0.1,0.4,0.1,0.8,0.2,1.3
			c0.1,1,0.1,1.7,0.1,2c-0.4,0.2-0.6,0.5-0.6,0.7c0,0.3,0.2,0.5,0.7,0.7c0,0.2,0,0.4,0,0.6c0,0.2,0,0.5-0.1,0.9c0,0.2,0,0.4,0,0.6
			c0,0.6,0.1,1.3,0.3,2.1c-0.3,0.3-0.5,0.6-0.5,0.9c0,0.3,0.1,0.6,0.4,1c0,0.1,0.1,0.2,0.2,0.5c0.1,0.1,0.1,0.4,0.3,0.7
			c-0.2,0.2-0.3,0.4-0.4,0.7c-0.1,0.1-0.4,0.3-0.8,0.4l-1,0.4l-0.6,0.2c-0.6,0.2-1,0.3-1.1,0.3c-0.2,0-0.4-0.1-0.6-0.3l0.4-1.7
			c-0.5,0.1-1.2,0.4-2.2,0.8l-0.8,0.2c-0.5,0.1-0.7,0.2-0.7,0.2l-1-0.1l-1,0.5l-0.5,0.1l-2.1,0.4l-1.1-0.1c-0.5,0.2-0.9,0.3-1.1,0.3
			c-0.2,0-0.9-0.1-2-0.3l-1.1-0.1l-0.8-0.3c-0.6-0.2-1.1-0.5-1.4-0.7c-0.3-0.2-0.5-0.5-0.6-1l-0.6-0.2c-0.1-0.2-0.1-0.5-0.2-0.9
			l-0.3-1.1v0c0-0.2,0.1-0.4,0.3-0.8c0.2-0.3,0.4-0.7,0.7-1.3c0.9-0.8,1.4-1.4,1.7-1.6c0.2-0.2,0.8-0.5,1.6-0.8
			c0.5-0.3,0.8-0.5,0.9-0.5C269.3,88.1,269.4,88.2,269.6,88.2z M268,93.7c-0.1,0.2-0.3,0.5-0.4,0.7c-0.2,0.3-0.3,0.5-0.3,0.6
			l0.3,0.5l0.7-0.6c0.6,0.4,1,0.6,1.2,0.7c0.6,0.2,1,0.3,1,0.3c0.1,0.1,0.3,0.3,0.4,0.5c0.4,0.1,0.7,0.1,0.8,0.1c0.1,0,0.3,0,0.3,0
			c0.2,0,0.4-0.1,0.7-0.4c0.2,0.2,0.5,0.3,0.6,0.3c0,0,0.2-0.1,0.6-0.3l0.7,0.2l1.4-0.5l0.7-0.3l0.6,0.1l1-0.4l1.1-0.4
			c0.3-0.5,0.5-0.7,0.5-0.8c0.2-0.2,0.5-0.3,0.9-0.4l0.2-0.8c0.3-0.2,0.5-0.4,0.6-0.7c-0.2-0.2-0.4-0.4-0.5-0.5c0-0.3,0-0.5,0-0.7
			v-0.4c0-0.5,0-0.9-0.1-1.2c0-0.1,0-0.2,0-0.3c0-0.2,0.1-0.5,0.2-0.9c-0.2,0-0.4-0.1-0.6-0.3l-1.1,0l-1-0.1l-0.8,0h-0.5
			c-0.1,0-0.3-0.1-0.8-0.4l-0.6,0.2c-0.7,0-1.2,0.1-1.5,0.2c-0.2,0.1-0.4,0.1-0.5,0.1c0,0-0.2-0.1-0.6-0.2c0,0,0,0-0.1,0
			c-0.1,0-0.4,0.2-0.8,0.5c-0.1,0.1-0.5,0.2-1.4,0.5c-1.1,0.5-1.9,0.9-2.4,1.4c-0.1,0.1-0.2,0.3-0.6,0.8c-0.1,0.2-0.4,0.3-0.9,0.4
			c-0.1,0.1-0.1,0.2-0.1,0.3c0,0.1,0.1,0.2,0.2,0.3l0.2,1.4C267.6,93.2,267.8,93.4,268,93.7z"/>
		<path id="XMLID_25_" class="st3" d="M300.1,104.7c0.1-0.2,0.2-0.4,0.2-0.4l0.8-0.5c0.2-0.1,0.5-0.6,1-1.3c0.1-0.1,0.3-0.2,0.6-0.5
			c0.2-0.1,0.4-0.3,0.5-0.6c0-0.2,0-0.3,0-0.4c0-0.4,0.2-0.8,0.7-1.2c0.7-0.6,1.1-1,1.2-1.3l1.4-2.6c0,0,0.2-0.1,0.5-0.2l0.1-0.1
			c0-0.2,0-0.4,0-0.5c0-0.2,0-0.3,0.1-0.4l0.7-0.9l2.6-4l0.1-0.3c-0.1-0.1-0.2-0.2-0.3-0.2c0,0-0.1,0-0.3,0.1c-0.1,0-0.2,0-0.3,0
			c-0.1,0-0.3,0-0.5,0c-0.1-0.3-0.2-0.6-0.2-0.7c0-0.1,0.1-0.3,0.3-0.6c0.1-0.5,0.3-0.8,0.4-1c0.3-0.4,0.5-0.7,0.6-0.9
			c0.3,0,0.6,0,0.7,0.1l1.1,0.4l0.1-0.1c0.1-0.2,0.1-0.3,0.1-0.4c0-0.1,0-0.3-0.1-0.6c0.3-0.2,0.5-0.4,0.5-0.4l0.5-1
			c0.1-0.2,0.5-0.6,1-1.1c0.1-0.4,0.1-0.7,0.2-0.8c0.1-0.1,0.4-0.4,1-0.9c0.1-0.1,0.3-0.5,0.6-1.4c0.1-0.2,0.6-1,1.4-2.2l1.7-3.3
			l0.7-0.8c0-0.3,0.1-0.5,0.1-0.5c0-0.1,0.3-0.4,0.7-1.1c0-0.1,0.1-0.1,0.1-0.2c0-0.1,0-0.3-0.1-0.4c0.2-0.1,0.3-0.4,0.5-0.7
			c0.2-0.3,0.3-0.6,0.5-0.9l0.5,0.8c0.1-0.2,0.1-0.4,0.1-0.4c0-0.1-0.1-0.3-0.2-0.6c0.2-0.4,0.3-0.7,0.4-0.8
			c0.3-0.5,0.5-0.8,0.5-0.9c0,0,0-0.2,0-0.6c0-0.1,0.1-0.2,0.3-0.6c0.1-0.1,0.2-0.5,0.5-1.3c0-0.1,0.1-0.3,0.3-0.7l1.1-0.1l-0.1-0.3
			l-0.7-0.3v-0.4c0.3-0.2,0.5-0.4,0.6-0.7l-0.3-0.3v-0.1c0.3-0.2,0.5-0.6,0.8-1c0.2-0.4,0.4-0.8,0.6-1c-0.1-0.2-0.2-0.4-0.2-0.6
			v-0.2v-0.3V59l2.1-1.5l0.5,0.4c0.2-0.3,0.3-0.5,0.3-0.7c0.1-0.3,0.2-0.4,0.4-0.4s0.3,0,0.4,0.1c0.1-0.4,0.3-0.6,0.5-0.8
			c0.3-0.3,0.7-0.4,0.9-0.4c0.5,0,0.8,0.6,0.9,1.9c0.2,0.8,0.3,1.4,0.3,1.7c0.1,0.5,0.3,1.1,0.7,1.8c0.2,0.9,0.3,1.5,0.3,1.8
			c0,0.2,0,0.4,0,0.6l-1,0.5c0.2,0.3,0.3,0.6,0.4,0.7c0.1,0,0.5,0.2,1.2,0.4c0.3,0.1,0.7,0.6,1,1.5c0.3,0.6,0.4,1,0.4,1.2
			c0,0.1-0.1,0.3-0.3,0.7c0.3,0.3,0.5,0.5,0.5,0.5c0.4,0.4,0.7,0.6,0.7,0.7l0.3,0.8l0.5,1.3c0.1,0.1,0.1,0.4,0.1,0.9
			c0.5,0.6,0.8,1.1,0.9,1.7c0.1,0.5,0.1,0.7,0.1,0.7l0.6,0.9c0.1,0.1,0.4,0.9,1.1,2.2l-0.6,0.4c0.1,0.3,0.2,0.6,0.4,0.7l0.4,0.1
			l-0.1,0.6c1.8,1.7,2.7,3.3,2.7,4.9c0.1,0.4,0.4,1.2,1.1,2.4c0.9,1.8,1.5,2.8,1.6,3.1c0.1,0.4,0.3,0.8,0.6,1.1l1.6,3.6l-0.1,0.8
			c1,0.6,1.6,1.1,1.6,1.6c0,0.2-0.3,0.5-0.8,0.7c0.1,0.3,0.3,0.5,0.4,0.5c0,0,0.2,0.1,0.5,0.2c0.2,0.1,0.5,0.4,0.8,1
			c0.1,0.3,0.4,0.9,0.7,1.9c0.7,1.1,1.2,1.9,1.4,2.2c-0.3,0.3-0.5,0.5-0.5,0.8c0,0.1,0,0.2,0,0.4c-0.6,0.3-1,0.4-1.3,0.5
			c-0.1,0-0.4,0.1-0.9,0.1c-0.2,0-0.9,0.2-1.8,0.6c-0.5-1-0.7-1.8-0.8-2.2c-0.1-0.4-0.2-0.8-0.5-1.2c-0.5-1.3-0.7-2-0.7-2.2
			c0-0.1,0-0.3,0-0.4c-0.3-0.3-0.5-0.6-0.5-0.8c0-0.1,0-0.3-0.1-0.8c0-0.2-0.1-0.3-0.1-0.4c0-0.2,0.1-0.5,0.3-0.9l-0.8-0.7
			c0.2-0.3,0.4-0.4,0.4-0.5c0.2-0.1,0.3-0.3,0.3-0.4s0-0.2-0.1-0.4l-1.3,0.1c-0.4-0.6-0.7-1-0.9-1.3c-0.1-0.2-0.2-0.8-0.4-1.6
			l-0.4-0.9c-0.2-1.1-0.4-1.8-0.5-2c-0.3-0.6-0.8-0.9-1.5-0.9c-0.6,0-0.9,0.7-1,2c-0.1,0.1-0.2,0.1-0.3,0.1c-0.2,0-0.4-0.1-0.7-0.4
			c-0.5-0.3-1-0.6-1.6-0.7c-0.3,0-0.6-0.2-1.1-0.4c-0.6-0.3-1.1-0.4-1.5-0.4c-0.2,0-0.6,0.1-1.4,0.3l-0.8-0.1l-0.8,0.1h-0.7
			l-0.7,0.1l-1.2,0c-0.5,0-0.9,0-1,0l-0.4,0l-1.6-0.4l-0.8,0.2c-0.6-0.2-0.9-0.2-0.9-0.2c-0.1,0-0.5,0.1-1.3,0.3
			c-0.5,0.1-1,0.2-1.4,0.2l-0.7-0.8c-0.6,0.1-1.1,0.3-1.7,0.6c-0.1,0-0.4,0.1-1.1,0.2c-0.3,0-0.4,0.1-0.4,0.1c-0.2,0-0.5,0-0.8-0.1
			c-0.4-0.1-0.8-0.1-1.1-0.1c-0.2,0-0.7,0.1-1.3,0.2c-0.4,0.1-0.7,0.2-1.1,0.2c-0.2,0.3-0.3,0.5-0.4,0.6c-0.3,0.5-0.6,1.1-1,1.6
			c-0.3,0.5-0.7,1.2-1.2,2.1l-0.5-0.1c-0.1,0.1-0.2,0.3-0.2,0.4c0,0.1,0,0.3,0.1,0.5c0,0.1,0,0.3,0.1,0.4c-0.3,0.4-0.5,0.6-0.5,0.7
			l-1.3,2.5c-0.2,0.4-0.5,0.8-0.7,1.2l-0.2,0.4l-1.4,0.9c-0.1,0.1-0.1,0.1-0.1,0.3c0,0.2,0.2,0.5,0.6,0.8l-0.4,1.2
			c-0.4,0.2-0.7,0.3-0.9,0.4c-0.2,0.2-0.5,0.6-0.8,1.1c-0.5,0.2-0.8,0.4-1,0.5c-0.2,0.2-0.4,0.3-0.5,0.3c-0.1,0-0.2-0.1-0.5-0.3
			c-0.1-0.1-0.2-0.1-0.3-0.1c-0.1,0-0.2,0-0.4,0C300.9,105,300.5,104.8,300.1,104.7z M314.5,86.7c0.4-0.2,0.6-0.3,0.7-0.3
			c0.1,0,0.3,0.1,0.5,0.3l0.8-0.1l0.3,0.5c0.4-0.1,0.9-0.2,1.5-0.2h2.3c0.4,0,1,0.1,1.7,0.4c0.8,0.1,1.3,0.1,1.7,0.2
			c0.4,0.5,0.8,0.8,1.3,0.8l1.6-0.8l0.9,0.2h1.5l0.6,0.2l0.8-0.1l0.7,0.1l0.7-0.1l0.7,0.2l1.5-0.3l1.2-0.1l2.3-0.2l1.9,0.2
			c0.3,0,0.4-0.1,0.4-0.3c0-0.1-0.1-0.4-0.2-0.9c0-0.1-0.1-0.3-0.1-0.6c-0.3-0.2-0.6-0.5-0.7-0.8c-0.6-1.2-1-1.9-1-1.9
			c-0.2-0.2-0.3-0.5-0.4-0.9c-0.1-0.3-0.2-0.6-0.4-0.9c0.1-0.5,0.1-0.8,0.1-1.1c0-0.2-0.1-0.5-0.2-0.9l-0.9,0.1
			c-0.2-0.4-0.3-0.7-0.3-0.8l-0.2-0.7l-0.6-0.8l-0.7-1.1l-0.3-0.5c-0.1-0.7-0.3-1.4-0.7-1.9c-0.2-0.4-0.4-0.8-0.3-1.1l0.5-0.2
			c-0.2-0.3-0.4-0.4-0.7-0.4c-0.1,0-0.2,0-0.4,0c-0.2-0.4-0.3-0.6-0.4-0.7c-0.4-0.6-0.6-0.9-0.6-1l-0.2-1l-0.4-0.7l-0.4-0.9
			l-0.9-1.1l-0.5-1.5l-0.4-0.8c-0.2-0.5-0.5-0.9-0.8-1.3c-0.4,0.3-0.7,0.5-0.9,0.8c-0.3,0.6-0.4,1.1-0.4,1.6h-0.2
			c-0.3,0.5-0.7,1.1-1.1,1.7l-1.5,2.9c-0.3,0.5-0.5,0.9-0.5,1.3c-0.3,0.2-0.5,0.4-0.6,0.7c-0.3,0.7-0.8,1.2-1.4,1.4l0.1,0.7
			l-0.4,0.2h0c-0.3,0-0.6-0.1-0.9-0.1l-0.2,0.3l0.7,0.4c-0.2,0.7-0.5,1.4-0.9,2.1c-0.8,1.6-1.6,2.6-2.3,3c-0.2,0.1-0.3,0.4-0.3,0.8
			c0,0.3-0.1,0.6-0.2,0.9l-0.7,1.3l-0.6,0.7l-0.3,0.7c-0.4,0.6-0.6,1.1-0.7,1.3C314.7,86.1,314.6,86.4,314.5,86.7z"/>
		<path id="XMLID_28_" class="st3" d="M368.5,87.6l-0.7,0.5c-0.7-0.2-1.2-0.3-1.6-0.3c-0.5,0-1,0-1.7,0.1c-0.2-0.4-0.5-0.7-0.8-0.9
			l-0.5,0.7c-0.4,0.1-0.8,0.1-1.3,0.3c-0.2,0.1-0.4,0.1-0.5,0.1c0,0-0.1,0-0.2,0l-1-0.2c0,0,0,0-0.1,0.1l-0.5-0.5
			c-0.3,0.1-0.5,0.2-0.7,0.2c-0.1,0-0.3-0.1-0.7-0.3c-0.1,0-0.2-0.1-0.5-0.2c-1.3-0.5-2-1.2-2-2.3c0-0.9,0.4-1.8,1.1-2.7
			c0.2-0.3,0.7-0.7,1.5-1.4l0.5-0.5l1.2-0.7c1.3-0.8,2.2-1.3,2.8-1.5c1.4-0.6,2.4-0.8,3.3-0.8c0.1,0,0.9,0.2,2.3,0.5l1.4-0.2
			c0.9,0.1,1.3,0.1,1.5,0.2c0.3,0.2,0.5,0.3,0.5,0.5c0,0.2-0.1,0.3-0.3,0.5c-0.1,0-0.5,0.3-1.3,0.8c-0.8,0.5-1.3,0.8-1.4,0.8
			c-1.1,0-2-0.1-2.5-0.2c-0.2-0.4-0.4-0.7-0.5-0.9h-0.2l-0.5,0.5c-0.3,0-0.5,0-0.7,0c-0.2,0-0.3,0-0.4,0c-0.2,0-0.3,0-0.4,0
			c0,0-0.3,0.1-0.7,0.2c-0.1-0.1-0.4-0.2-0.8-0.2c-0.3,0.3-0.9,0.6-1.7,1c-0.4,0.2-0.8,0.6-1.1,1c-0.3,0.5-0.5,0.9-0.5,1.3
			c0,0.2,0.2,0.4,0.5,0.7c0.1,0.1,0.4,0.2,0.9,0.4c0.3,0.2,0.7,0.3,1,0.6c0,0.1,0,0.3,0,0.3c0,0.4,0.1,0.5,0.4,0.5
			c0.3,0,0.6-0.2,0.9-0.7c0.4,0.1,0.7,0.1,1,0.1c0.1,0,0.6-0.1,1.5-0.2l0.8,0.1c0.8-0.1,1.2-0.2,1.3-0.2c0.1,0,0.6,0.1,1.3,0.4
			l0.9-0.1l0.9,0.7c1,0.5,1.7,0.9,2.1,1.3c0.3,0.3,0.4,0.6,0.5,0.8l0.2,0.9c0.2,1,0.4,1.6,0.4,1.8c0,0.1,0,0.4-0.1,0.9
			c-0.1,1.1-0.4,1.7-1,1.7c-0.2,0-0.4,0-0.6-0.1c-0.2,0.9-0.4,1.4-0.5,1.5c-0.8,0.9-1.3,1.5-1.5,1.8c-0.9,0.1-1.6,0.4-2.2,0.8
			c-0.3,0.2-0.4,0.3-0.5,0.3c-0.1,0-0.3,0-0.7,0.1l-2.1,0.6c-0.7-0.1-1.1-0.2-1.1-0.2c-0.1,0-0.6,0.1-1.6,0.4l-0.6-0.1
			c-0.8-0.1-1.5-0.1-1.9-0.2c-0.9-0.2-1.4-0.4-1.4-0.5l-0.8-0.5c-1-0.6-1.7-1.1-1.9-1.4c-0.5-0.6-0.8-1.2-0.8-1.8
			c0-0.1,0.2-0.3,0.6-0.6l0.7-0.7c0.7-0.5,1-0.7,1.1-0.7c0.1,0,0.1,0,0.2,0.1c0.4,0.4,0.6,0.8,0.6,1.3l-0.1,0.8v0
			c0,0.2,0,0.3,0.1,0.4c0.1,0.1,0.4,0.3,0.9,0.6c0.1,0.1,0.3,0.2,0.5,0.3c0.4,0.4,0.7,0.6,0.7,0.6l1,0.4l0.9,0.5h1l0.6,0.1
			c0.6-0.2,1.2-0.3,1.7-0.3c0.5,0,0.8-0.1,1.1-0.2l1-0.5c0.6-0.2,0.9-0.3,1-0.4c0.3-0.3,0.8-0.8,1.3-1.7c0.6-0.9,0.8-2,0.8-3.2
			c0-0.3-0.1-0.5-0.2-0.7C369.1,88.7,368.7,87.9,368.5,87.6z"/>
		<path id="XMLID_30_" class="st3" d="M378.2,79c0.1-0.7,0.4-1,0.7-1h0l1.3,0.1h0.1c1-0.1,1.5-0.2,1.7-0.2c0-0.3,0-0.5,0-0.6
			c0-1.6,0-3-0.1-4c0-0.5-0.1-0.9-0.3-1.2l-0.3-0.5c-0.1-0.1-0.1-0.3-0.1-0.4c0-0.3,0.2-0.6,0.6-0.9c0.6-0.6,1.5-1,2.5-1.2
			c0.2-0.5,0.5-0.7,0.7-0.7c0.1,0,0.2,0,0.3,0.1c0.2,0.3,0.4,0.6,0.4,1c0,0-0.1,1.4-0.2,4.1c-0.2,0.7-0.3,1.1-0.4,1.3
			c-0.1,0.2-0.3,0.5-0.6,0.8c0,0.3,0.1,0.7,0.2,1h0.6l-0.2,1.3c0.4,0,1.3,0.2,2.7,0.6c0.1,0,0.4,0,0.9,0c0.3,0,0.8-0.1,1.5-0.3
			l1.7-0.2c0.9-0.3,1.4-0.5,1.6-0.5c0.2,0,0.5,0,0.8,0.1c0,0.5-0.1,0.8-0.2,1c-0.1,0.3-0.6,0.7-1.6,1.3c-0.2,0.1-0.4,0.3-0.5,0.4
			c-0.3,0.3-0.4,0.5-0.4,0.5c-0.1,0.1-0.3,0.1-0.6,0.1c-0.3,0-0.5,0-0.6-0.1l-1.1-0.6l-0.7-0.2l-0.8-0.6l-1.3,1l-1.1-0.2
			c-0.1,0-0.3,0.1-0.5,0.3c0.1,0.8,0.2,1.5,0.2,2.1c0,0.3,0,0.7,0,1.2c-0.6,0.1-1,0.4-1,0.8c0,0.2,0,0.3,0.1,0.6
			c0.4,0,0.7,0.1,1,0.2l-0.1,3.3c-0.3-0.1-0.5-0.1-0.7-0.1c-0.3,0-0.5,0.1-0.5,0.4c0,0.2,0.1,0.5,0.2,0.8c0.2-0.2,0.5-0.2,0.6-0.2
			c0.3,0,0.4,0.2,0.4,0.5l-0.1,1v0.1c0,0.7,0.1,1.2,0.1,1.5c0,0.3,0.1,0.7,0.3,1l0.3,0.5c0,0.1,0.1,0.2,0.1,0.3c0,0.2,0,0.4-0.1,0.6
			c0.5,0.3,1.1,0.5,1.8,0.5c0.6,0,1.1-0.1,1.7-0.4c0.5-0.2,0.7-0.4,0.7-0.4l1.4-1.3c0.7-0.6,1.1-0.9,1.3-0.9c0.2,0,0.4,0.1,0.7,0.2
			c-0.1,0.3-0.1,0.6-0.1,0.7c-0.1,0.9-0.2,1.4-0.4,1.6c-0.1,0.1-0.7,0.4-1.6,0.7c-0.7,0.4-1.8,0.8-3.2,1.3l-0.9,0.3
			c-0.6,0.3-0.9,0.5-1,0.5c-0.2,0-0.3-0.2-0.5-0.5l-0.5-0.1l-0.3,0.7c-0.2,0-0.5,0.1-0.6,0.1c-0.5,0-1-0.3-1.6-0.9
			c-0.3-0.3-0.5-0.6-0.7-0.9c0,0-0.1-0.2-0.2-0.7c-0.2-0.6-0.3-0.9-0.3-1c0-0.2,0-0.4,0.1-0.8c0-0.3,0.1-0.9,0.1-1.7
			c0-0.6,0.2-1,0.5-1.3c-0.1-0.3-0.2-0.7-0.2-1.2c-0.1-0.8-0.1-2.3-0.2-4.6c0.4-0.3,0.6-0.5,0.6-0.8c0-0.1,0-0.3-0.1-0.5l-0.8-0.2
			l-0.1-0.2v0c0-0.1,0-0.3,0.1-0.5c0.1-0.5,0.2-1.2,0.2-2.3c-0.7-0.2-1.2-0.2-1.6-0.2c-0.1,0-0.6,0.1-1.4,0.2l-0.5,0.1
			c-0.5,0.2-0.7,0.2-0.8,0.2c-0.2,0-0.4-0.1-0.4-0.3C377.1,79.8,377.5,79.4,378.2,79z"/>
		<path id="XMLID_32_" class="st3" d="M397.8,79.6c0.1-0.3,0.3-0.6,0.5-0.9c0.2-0.2,0.6-0.5,1.4-0.8c0.7-0.5,1.2-0.7,1.3-0.7
			c0.3,0,0.5,0.1,0.7,0.3l0.1,0.4l0.2,0.8c-0.1,0.2-0.1,0.3-0.1,0.4c0,0.2,0.1,0.3,0.3,0.5c0.3-0.1,0.8-0.3,1.4-0.7l1.1-0.4l1.1-0.7
			l0.7-0.3c0.4-0.2,0.6-0.3,0.6-0.3l0.6,0.1c0,0,0.1,0,0.1,0c0.1,0,0.7-0.2,1.8-0.5c0.1,0,0.4-0.1,0.8-0.1c0.3,0,0.5,0,0.6,0.1
			c0,0,0.2,0.2,0.5,0.5c0.2,0.1,0.3,0.1,0.4,0.1c0,0,0.3-0.1,0.8-0.4c0,0,0.1,0,0.1,0c0.2,0,0.5,0.1,0.8,0.4
			c0.3,0.2,0.5,0.6,0.6,1.1c-0.3,0.3-0.8,0.7-1.6,1.2c-0.4,0.5-0.7,0.7-0.8,0.7c-0.3,0-0.6-0.3-1.1-0.8c-0.3,0-0.6,0.1-0.8,0.1
			c-0.2,0-0.6-0.1-1.1-0.3c-0.4-0.2-0.8-0.3-1.3-0.3c-0.2,0.3-0.5,0.5-0.9,0.6c-0.5,0-0.8,0.1-0.9,0.1l-1,0.3
			c-0.1,0-0.2-0.1-0.4-0.2c-0.3,0.3-1,0.8-1.8,1.4c-0.6,0.4-0.8,1.1-0.8,2.1v0.1c0,0.2,0,0.5,0,0.8c0,0.3,0,0.6,0,0.8
			c0,0.2-0.2,0.5-0.6,0.9c0.3,0.3,0.4,0.6,0.4,0.8c0,0.1,0,0.3-0.1,0.4l0.4,0.1l0.1,0.8l0.1,4.7l-0.1,0.3l-0.7,0.4
			c-1,0.2-1.5,0.3-1.5,0.4c0,0.1,0.5,0.2,1.6,0.3l0.4-0.1c0.2,0.6,0.3,1,0.3,1.2c0,0.4-0.2,0.7-0.6,0.9c-0.2,0.1-0.6,0.2-1.3,0.3
			c-0.1,0-0.5,0.3-1.1,0.7c-0.1,0.1-0.2,0.1-0.4,0.1c-0.4,0-0.6-0.2-0.6-0.5c0-0.1,0.1-0.6,0.4-1.5c0-0.1,0.1-0.2,0.1-0.3
			c0,0,0-0.4-0.1-1.2c0-0.1,0-0.2,0.1-0.4l0.6-0.2c0-0.2,0-0.3,0-0.4c0-0.2-0.1-0.5-0.4-0.8c0-0.2,0-0.5,0-0.7
			c0-0.2-0.1-0.6-0.2-1.2c0.1-0.6,0.1-1.1,0.1-1.5c0.6-0.2,1-0.5,1-0.8c0-0.1,0-0.2-0.1-0.4c-0.2,0.1-0.4,0.1-0.5,0.1
			c-0.1,0-0.3-0.1-0.4-0.2c0-0.3,0-0.7,0-1.1v-0.5V85v-0.2c0-0.1,0-0.3,0-0.5c0-0.2,0-0.3,0-0.4c0-0.3,0.1-0.7,0.3-1.1
			c-0.2-0.2-0.4-0.4-0.4-0.5c0-0.1-0.1-0.6-0.1-1.7C398.4,80.4,398.2,80.1,397.8,79.6z"/>
		<path id="XMLID_34_" class="st3" d="M420.7,88.2c0.2-0.3,0.4-0.6,0.6-0.7c0.1-0.1,0.7-0.2,1.6-0.4c0.7-0.3,1.1-0.5,1.3-0.6
			c0.2,0,0.7-0.1,1.6-0.2l0.8-0.3l0.5-0.1l0.5-0.1h1l2.1-0.3c0.6-0.1,1-0.1,1.1-0.2c0.3-0.2,0.5-0.6,0.5-1c0-0.1-0.1-0.4-0.2-0.8
			l1.4-1.7c0,0-0.5-0.2-1.6-0.5c-0.1,0-0.3-0.1-0.8-0.1c-0.7-1-1.2-1.5-1.3-1.6c-0.2-0.1-0.8-0.2-2-0.4h-0.8
			c-0.4-0.1-0.6-0.2-0.8-0.2c-0.1,0-0.3,0-0.6,0.1l-0.5-0.6c-0.4,0.1-0.7,0.3-0.9,0.6c-0.2,0.2-0.4,0.4-0.8,0.5
			c-0.9,0.4-1.7,0.8-2.2,1.3l-0.4,0.2c-0.2,0.3-0.4,0.5-0.4,0.5c-0.2,0.1-0.5,0.2-0.7,0.2c-0.1,0-0.4-0.1-1-0.3
			c-0.6-0.1-1-0.3-1.1-0.3c-0.2-0.1-0.4-0.3-0.6-0.7c0.3-0.2,0.5-0.4,0.6-0.5c0.3-0.3,0.5-0.4,0.6-0.4l1.2-0.3l0.8-0.4l1.7-0.5
			l1-0.4h1.1l1.2-0.3l0.5,0l0.9-0.2c0.9,0,1.4,0,1.6,0c0.2,0,0.7,0.1,1.4,0.4l0.6,0.1c0.7,0.1,1.2,0.2,1.4,0.3
			c0.2,0,0.6,0.2,0.9,0.6c-0.3,0.3-0.4,0.5-0.4,0.7c0,0.2,0.1,0.4,0.3,0.4c0.1,0,0.3-0.1,0.6-0.2c0.2-0.1,0.4-0.1,0.7-0.2
			c0.2,0.2,0.3,0.5,0.4,0.9l0.7,0.5c0,0.2,0.1,0.3,0.1,0.4l-0.1,1c0.2,0.8,0.4,1.2,0.6,1.4h0.1c0.1,0.4,0.1,0.8,0.2,1.3
			c0.1,1,0.1,1.7,0.1,2c-0.4,0.2-0.6,0.5-0.6,0.7c0,0.3,0.2,0.5,0.7,0.7c0,0.2,0,0.4,0,0.6c0,0.2,0,0.5-0.1,0.9c0,0.2,0,0.4,0,0.6
			c0,0.6,0.1,1.3,0.3,2.1c-0.3,0.3-0.5,0.6-0.5,0.9c0,0.3,0.1,0.6,0.4,1c0,0.1,0.1,0.2,0.2,0.5c0.1,0.1,0.1,0.4,0.3,0.7
			c-0.2,0.2-0.3,0.4-0.4,0.7c-0.1,0.1-0.4,0.3-0.8,0.4l-1,0.4l-0.6,0.2c-0.6,0.2-1,0.3-1.1,0.3c-0.2,0-0.4-0.1-0.6-0.3l0.4-1.7
			c-0.5,0.1-1.2,0.4-2.2,0.8l-0.8,0.2c-0.5,0.1-0.7,0.2-0.7,0.2l-1-0.1l-1,0.5l-0.5,0.1l-2.1,0.4l-1.1-0.1c-0.5,0.2-0.9,0.3-1.1,0.3
			c-0.2,0-0.9-0.1-2-0.3l-1.1-0.1l-0.8-0.3c-0.6-0.2-1.1-0.5-1.4-0.7c-0.3-0.2-0.5-0.5-0.6-1l-0.6-0.2c-0.1-0.2-0.1-0.5-0.2-0.9
			l-0.3-1.1v0c0-0.2,0.1-0.4,0.3-0.8c0.2-0.3,0.4-0.7,0.7-1.3c0.9-0.8,1.4-1.4,1.7-1.6c0.2-0.2,0.8-0.5,1.6-0.8
			c0.5-0.3,0.8-0.5,0.9-0.5C420.3,88.1,420.5,88.2,420.7,88.2z M419.1,93.7c-0.1,0.2-0.3,0.5-0.4,0.7c-0.2,0.3-0.3,0.5-0.3,0.6
			l0.3,0.5l0.7-0.6c0.6,0.4,1,0.6,1.2,0.7c0.6,0.2,1,0.3,1,0.3c0.1,0.1,0.3,0.3,0.4,0.5c0.4,0.1,0.7,0.1,0.8,0.1c0.1,0,0.3,0,0.3,0
			c0.2,0,0.4-0.1,0.7-0.4c0.2,0.2,0.5,0.3,0.6,0.3c0,0,0.2-0.1,0.6-0.3l0.7,0.2l1.4-0.5l0.7-0.3l0.6,0.1l1-0.4l1.1-0.4
			c0.3-0.5,0.5-0.7,0.5-0.8c0.2-0.2,0.5-0.3,0.9-0.4l0.2-0.8c0.3-0.2,0.5-0.4,0.6-0.7c-0.2-0.2-0.4-0.4-0.5-0.5c0-0.3,0-0.5,0-0.7
			v-0.4c0-0.5,0-0.9-0.1-1.2c0-0.1,0-0.2,0-0.3c0-0.2,0.1-0.5,0.2-0.9c-0.2,0-0.4-0.1-0.6-0.3l-1.1,0l-1-0.1l-0.8,0h-0.5
			c-0.1,0-0.3-0.1-0.8-0.4l-0.6,0.2c-0.7,0-1.2,0.1-1.5,0.2c-0.2,0.1-0.4,0.1-0.5,0.1c0,0-0.2-0.1-0.6-0.2c0,0,0,0-0.1,0
			c-0.1,0-0.4,0.2-0.8,0.5c-0.1,0.1-0.5,0.2-1.4,0.5c-1.1,0.5-1.9,0.9-2.4,1.4c-0.1,0.1-0.2,0.3-0.6,0.8c-0.1,0.2-0.4,0.3-0.9,0.4
			c-0.1,0.1-0.1,0.2-0.1,0.3c0,0.1,0.1,0.2,0.2,0.3l0.2,1.4C418.7,93.2,418.8,93.4,419.1,93.7z"/>
		<path id="XMLID_37_" class="st3" d="M443.1,55.3c0.3-0.1,0.5-0.2,0.7-0.3c0.4-0.3,0.7-0.5,1-0.5c0.5-0.2,0.9-0.5,1.3-1
			c0.1,0,0.2,0,0.2,0c0.4,0,0.6,0.2,0.6,0.7v0.1c0,0.1,0,0.2,0,0.3c0,0.1,0,0.1,0,0.2l0.3,0.9l-0.1,2.2c0,1.4,0,2.1-0.1,2.2
			c0,0.2-0.2,0.4-0.4,0.7l-0.2,0.8l0.5,0.1c0.1,0.4,0.2,0.7,0.2,0.9c0,0.3-0.2,0.7-0.5,1c0,0.5-0.1,0.8-0.1,0.9
			c0,0.2,0.1,0.4,0.3,0.6c0,0.3,0,0.6,0,0.7l-0.1,3.3v3.3c0,0.2-0.2,0.5-0.5,1c-0.1,0.2-0.2,0.4-0.2,0.5c0,0,0.1,0.5,0.4,1.3
			c0,0,0,0.1,0,0.1c0,0.3-0.2,0.6-0.5,0.9l0.6,1.3l0.3,0.2v1.6l0.1,5.9l-0.5,0.3c0.1,0.4,0.1,0.7,0.1,0.9c0,0.1-0.1,0.5-0.2,1.3
			c0,0,0,0.3,0,0.7l0.8,0.1l-0.1,0.2l0.5,4.2l-0.1,1.1l0.2,0.8c-0.3,0.6-0.5,0.9-0.5,0.9c0,0.1,0,0.2,0.1,0.3
			c-0.3,0.1-0.8,0.4-1.5,0.8c-0.4,0.2-0.6,0.3-0.6,0.3c0,0-0.2,0-0.5,0c-0.4,0.3-0.8,0.5-1,0.5c-0.1,0-0.2,0-0.4-0.1
			c0-0.3,0-0.5,0-0.7c0-0.2,0-0.4-0.1-0.8c0-0.2-0.1-0.3-0.1-0.4c0-0.1,0.1-0.3,0.2-0.8l0.1-0.6l0.1-0.8l-0.1-0.5l2.2-1.4l-2.1-1.5
			l0.1-0.3l0.2-0.9l0.2-0.7c0,0-0.2-0.3-0.5-0.9c-0.1-0.1-0.1-0.2-0.1-0.3c0-0.1,0.1-0.4,0.4-1.1c0.2-0.5,0.3-1,0.3-1.4l-0.6-0.3
			c0-0.4,0-0.7,0-0.9c0-0.4-0.1-0.7-0.1-0.8c0-0.1,0.1-0.4,0.3-1.1c0-0.1,0-0.2,0-0.4c0-0.6,0-1.3-0.1-2c0-0.3-0.1-0.5-0.1-0.7
			c0-0.2,0.1-0.6,0.4-1.2c0-0.5,0.1-1,0.2-1.3l-0.5-0.7v-5.7c0.2-0.2,0.4-0.3,0.4-0.5c0.1-0.3,0.2-0.6,0.4-1
			c-0.4-0.1-0.7-0.3-0.9-0.5c0.1-0.5,0.2-0.8,0.2-0.9c0-0.2-0.2-0.3-0.5-0.5c-0.1-0.2-0.1-0.6-0.1-0.9l0-1.1c0-0.1,0.1-0.4,0.4-0.8
			c0.1-0.1,0.1-0.1,0.1-0.2c0,0,0-0.2-0.1-0.5c-0.1-0.3-0.2-0.5-0.2-0.5l-0.1-0.2l2-1.4l-1.3-1.8c-0.7-0.9-1-1.4-1-1.6
			c0-0.1,0.1-0.4,0.2-0.9C443,56,443.1,55.7,443.1,55.3z"/>
	</g>
</g>
</svg>
