<?xml version="1.0" encoding="utf-8"?>
<!-- Generator: Adobe Illustrator 19.0.0, SVG Export Plug-In . SVG Version: 6.00 Build 0)  -->
<svg version="1.1" id="Capa_1" xmlns="http://www.w3.org/2000/svg" xmlns:xlink="http://www.w3.org/1999/xlink" x="0px" y="0px"
	 viewBox="22.5 353.5 107.8 135.4" style="enable-background:new 22.5 353.5 107.8 135.4;" xml:space="preserve">
<style type="text/css">
	.st0{fill:#FCFCFC;}
	.st1{fill:#F294A6;}
	.st2{fill:#707272;}
</style>
<g id="XMLID_1_">
	<path id="XMLID_7_" class="st0" d="M71.8,410.5c0,0-2.5-6.1,1.7-15.1c0,0,2.6-5.8,2.6-15.7c0,0,4.4,5,6.2,10.7c0,0,1.7,3.9,1.4,9.7
		c0,0-0.3,8.3-3.1,10.3c0,0,17.3-7,14.8-23.1c0,0-2.3-10.3-11.9-19.8c0,0-7.1-8.2-7.5-14c0,0-3.7,11.5-10.3,20.2
		C65.6,373.8,50,389.5,71.8,410.5z"/>
	<path id="XMLID_6_" class="st1" d="M76.6,447.1c0,0,43.9-10.3,42.3-24.3c0,0,0-9.1-18.9-9.1c0,0-15.1,1.2-20,4.5v12.2v0.1v0.1
		c0,0.6-0.5,1-1,1h-4.6c-0.6,0-1-0.5-1-1v-0.1v-0.1v-12.1c-4.9-3.3-20-4.5-20-4.5c-19,0-18.9,9.1-18.9,9.1
		C32.7,436.9,76.6,447.1,76.6,447.1z"/>
	<path id="XMLID_5_" class="st2" d="M126.6,435c-3.1,3.4-8.5,8.1-16.4,12.2c0,0-18.2,8.9-33.8,11.2c-15.6-2.4-33.9-11.3-33.9-11.3
		c-8-4-13.3-8.8-16.4-12.2c-0.6-0.6-3.6-4.3-3.6-11.2v6.7v7v24.2c15,18.8,50.6,26.6,53.9,27.3c3.3-0.7,38.8-8.4,53.9-27.3v-24.2
		v-6.9v-6.7C130.2,430.6,127.2,434.3,126.6,435z"/>
</g>
</svg>
