<?xml version="1.0" encoding="utf-8"?>
<!-- Generator: Adobe Illustrator 19.0.0, SVG Export Plug-In . SVG Version: 6.00 Build 0)  -->
<svg version="1.1" id="Capa_1" xmlns="http://www.w3.org/2000/svg" xmlns:xlink="http://www.w3.org/1999/xlink" x="0px" y="0px"
	 viewBox="-425 212.7 496.5 135.4" style="enable-background:new -425 212.7 496.5 135.4;" xml:space="preserve">
<style type="text/css">
	.st0{fill:#FCFCFC;}
	.st1{fill:#F294A6;}
	.st2{fill:#707272;}
	.st3{fill:#F9F7F7;}
</style>
<g id="XMLID_1_">
	<path id="XMLID_7_" class="st0" d="M-375.7,269.7c0,0-2.5-6.1,1.7-15.1c0,0,2.6-5.8,2.6-15.7c0,0,4.4,5,6.2,10.7
		c0,0,1.7,3.9,1.4,9.7c0,0-0.3,8.3-3.1,10.3c0,0,17.3-7,14.8-23.1c0,0-2.3-10.3-11.9-19.8c0,0-7.1-8.2-7.5-14
		c0,0-3.7,11.5-10.3,20.2C-381.9,233-397.5,248.7-375.7,269.7z"/>
	<path id="XMLID_6_" class="st1" d="M-370.9,306.3c0,0,43.9-10.3,42.3-24.3c0,0,0-9.1-18.9-9.1c0,0-15.1,1.2-20,4.5v12.2v0.1v0.1
		c0,0.6-0.5,1-1,1h-4.6c-0.6,0-1-0.5-1-1v-0.1v-0.1v-12.1c-4.9-3.3-20-4.5-20-4.5c-19,0-18.9,9.1-18.9,9.1
		C-414.8,296.1-370.9,306.3-370.9,306.3z"/>
	<path id="XMLID_5_" class="st2" d="M-320.9,294.2c-3.1,3.4-8.5,8.1-16.4,12.2c0,0-18.2,8.9-33.8,11.2
		c-15.6-2.4-33.9-11.3-33.9-11.3c-8-4-13.3-8.8-16.4-12.2c-0.6-0.6-3.6-4.3-3.6-11.2v6.7v7v24.2c15,18.8,50.6,26.6,53.9,27.3
		c3.3-0.7,38.8-8.4,53.9-27.3v-24.2v-6.9V283C-317.3,289.8-320.3,293.5-320.9,294.2z"/>
</g>
<g>
	<path class="st3" d="M-297.7,277v-0.3c0.2-0.2,0.6-0.3,1-0.4c0.3-0.3,0.8-0.6,1.5-0.9c0.9-0.5,1.5-0.7,1.7-0.7
		c0.2,0,0.4,0.1,0.8,0.4c0.4-0.2,0.6-0.4,0.7-0.5c0.2-0.2,0.5-0.3,0.7-0.3c0.4,0.4,0.9,0.6,1.5,0.8c1.2,0.3,1.9,0.4,2.2,0.4
		c0,0,0.1,0,0.1,0l1.9-0.2l1.7,1.5c0.7-0.9,1.1-1.3,1.2-1.3c0.2,0,0.5,0.1,0.9,0.4c0.1,0.1,0.2,0.1,0.4,0.1l0.7,0l1.9,0.3l1.3-0.1
		l1.3,0.2l1.3,0l2,0.1l0.9-0.2l1.7,0.1l0.8,0h0.9l2.9-0.4c1.4,0.1,2.3,0.2,2.6,0.2c0.7,0,1.1-0.1,1.4-0.2c0.3-0.2,0.6-0.3,0.9-0.3
		l4.9-1c0,0.1,0,0.3,0,0.4c0,0.1-0.1,0.3-0.2,0.5c-0.2,0.5-0.4,0.9-0.5,1c-0.1,0.1-0.3,0.4-0.7,0.7c-0.8,0.7-1.5,1.3-1.9,1.9
		c-0.3-0.4-0.6-0.7-0.8-0.7h-0.7c0,0-0.4-0.4-1-1.1l0,0c-0.1,0-0.3,0.4-0.6,1.2v0.5c-0.5-0.2-0.9-0.4-0.9-0.5
		c-0.3-0.4-0.5-0.7-0.8-1.1c0,0,0-0.1-0.1-0.1l-1.9,1.4c-0.1,0.1-0.2,0.1-0.4,0.1c-0.5,0-1.1,0-1.9-0.1c-0.3,0-0.7-0.1-1.3-0.1
		c-0.3-0.4-0.6-0.6-0.9-0.6h-0.2c-0.4,0-0.7,0-0.8,0c-0.3,0-0.7,0.1-1.4,0.3c-0.4,0.1-0.9,0.2-1.6,0.2c-0.3,0-0.9-0.2-1.8-0.5
		l-0.8,0.1h-0.9c-0.5,0.2-0.8,0.3-0.8,0.3c0,0-1-0.2-2.9-0.6l-0.8-0.9l-0.9,1.3l-1.7-1.5l-0.5,0.9c-0.3,0.6-0.8,0.9-1.4,0.9h-0.1
		c-0.2,0-0.5-0.2-0.8-0.5c-0.6-0.7-1.1-1.1-1.4-1.1c-0.4,0-0.7,0.5-0.9,1.6l0.1,0.1l-2.8,3l2.7,0.8l0,0.9v0.5c0,0.2-0.2,0.5-0.5,0.9
		l0.6,0.6l0.1,2.9c0.5,0,1-0.1,1.2-0.1c0.4,0,1.5,0.1,3.1,0.4l3.7,0.2l0.8,0.3l1-0.4c0.9,0.2,1.4,0.2,1.6,0.2c0.2,0,0.5-0.1,0.9-0.3
		c0.1,0,0.1,0,0.2,0c0.1,0,0.3,0.1,0.7,0.3l0.2-0.3c0.2,0,0.3-0.1,0.3-0.1l2,0.2c0.9,0,1.4,0,1.4,0c0.1,0,0.3-0.2,0.7-0.6l0.3,1.1
		c0.1,0.1,0.2,0.2,0.3,0.2c0.1,0,0.8-0.4,2.1-1.2c0.2-0.2,0.4-0.2,0.5-0.2c0,0,0.4,0.1,1.2,0.3c0.1,0,0.2,0,0.2,0
		c0.3,0,0.7-0.1,1.1-0.2c0.6-0.2,1.9-0.4,3.7-0.7c1.3-0.4,2.2-0.6,2.7-0.7c0,0.1,0,0.2,0,0.3c0,0.4-0.1,0.7-0.2,0.9
		c-0.1,0.2-0.4,0.4-0.8,0.6l0.2,1c-0.6,0.3-1.1,0.8-1.6,1.2c-0.6,0-1,0-1.2,0c-1.1,0-1.8-0.2-2.2-0.3c-0.5-0.2-1-0.4-1.4-0.5
		c-0.5,0.3-0.9,0.6-1.2,0.6c-0.1,0-0.9,0-2.4,0.1l-0.7,0c-0.8-0.2-1.3-0.3-1.5-0.3c-0.2,0-0.4,0-0.5,0c-1,0.2-1.6,0.2-1.7,0.2
		c0,0-0.4,0-1.2-0.2c-0.1,0-0.3,0-0.3,0c-0.2,0-0.6,0-1.2,0.1c-0.2,0-0.4,0-0.5,0c-0.1,0-0.5-0.1-1.2-0.2l-1.8,0.4l-1-0.1l-1,0.1
		h-0.8l-1.2,0.1c-0.7-0.3-1.3-0.4-1.7-0.5l-0.1,0.2l-0.1,0.7l-1.6-0.2c-0.1,0.1-0.1,0.3-0.2,0.9c-0.1,0.4-0.2,0.7-0.2,0.7
		c0,0.2,0,0.6,0.1,1.1c0.1,1.5,0.1,2.5,0.1,3c-0.2,0.2-0.5,0.3-0.7,0.3c-0.2,0.2-0.3,0.5-0.3,0.7c0,0.5,0.3,0.9,0.9,1.2
		c-1,0.3-1.6,0.6-1.9,1c-0.2,0.3-0.4,0.9-0.4,1.6c0,0.9,0.3,1.5,1,1.8c0.9,0.4,1.4,0.7,1.4,0.9l0,0.1c-0.3,0.6-0.5,1-0.5,1.3
		c0,0.2,0,0.4,0.1,0.7l0.5,0.4l0.1,0.3l-0.2,0.2c-0.3,0-0.5,0.1-0.6,0.2c0.1,0.2,0.3,0.4,0.6,0.6c0,0.2,0,0.4,0,0.5l0.1,4.6
		c0,0.2-0.1,0.4-0.2,0.6c0,0-0.3,0.3-0.9,0.9c-0.1,0.1-0.1,0.2-0.1,0.3c0,0.4,0.4,0.6,1.2,0.7l0.1,2.6l0.1,4.9
		c0.1,0.7,0.2,1.1,0.2,1.2c0,0.5-0.3,0.9-0.9,1.4c0.2,1.3,0.6,1.9,1.2,1.9c0,0.6,0,1,0,1.2c0.1,1.3,0.1,2,0.1,2.2
		c0,0.6-0.2,0.9-0.5,0.9c-0.2,0-0.4-0.1-0.7-0.2c0,0.5-0.1,0.9-0.2,1c0,0-0.3,0.1-0.6,0.2l-0.9,0.4l-1.3,0.4l-1.1,0.4
		c-0.2,0-0.4-0.2-0.8-0.5c0.1-0.2,0.1-0.3,0.1-0.4c0-0.2-0.1-0.5-0.4-0.9c0.2-0.4,0.5-0.9,0.8-1.5c0.3-0.5,0.5-0.8,0.5-0.9
		c0-0.1,0-0.3,0-0.8c0.3-1.4,0.4-2.7,0.4-4c0-0.1,0-0.4-0.1-0.8c0.1-0.1,0.2-0.2,0.3-0.2c0.2,0,0.4,0.1,0.7,0.2l-0.2-0.5
		c-0.2-0.1-0.4-0.1-0.5-0.1c-0.3-0.1-0.5-0.1-0.5-0.2c-0.1-0.1-0.1-0.6-0.1-1.4c0-1.3,0-1.9,0-2c0-0.2,0.2-0.4,0.6-0.6
		c0-0.1-0.1-0.3-0.1-0.4c0-0.2,0.1-0.3,0.4-0.4l0.1,0.1l0.2-0.2v-0.8l-0.2,0.1l-0.2-0.6c-0.1,0-0.2,0-0.3,0c-0.4,0-0.5-0.2-0.5-0.5
		v-0.1c0-0.3,0-0.6,0-0.9c0-0.3,0.1-1.1,0.1-2.2c0.2-0.4,0.3-0.7,0.3-0.7c0-0.1-0.1-0.3-0.2-0.6c0.3-0.4,0.5-0.7,0.5-1
		c0-0.2-0.2-0.5-0.5-0.7c0-0.5,0-0.9,0-1.2c0-0.3,0-0.6,0-0.9c0-0.3,0.1-0.6,0.1-0.7c0-0.1-0.1-0.4-0.2-1c-0.1-0.2-0.1-0.5-0.1-0.9
		c0-0.4,0.2-0.8,0.6-0.9v-0.6h0.1l0.5-0.5l-0.3-1l-0.5-0.2c-0.2-0.5-0.3-0.8-0.4-1c0-0.1-0.1-0.9-0.1-2.5l-0.2-1.2l-0.1-1
		c-0.1-0.7-0.1-1.1-0.1-1.2c0-0.4,0-1,0.1-1.6c0.4,0,0.7,0,0.7-0.2c0-0.1,0.1-0.3,0.2-0.8l-1-2c0.2-0.5,0.2-0.8,0.2-1
		c0-0.1-0.1-0.6-0.3-1.4l-0.2-1.6l-0.3-1.5l-0.1-1.8l-0.2-1l0.2-1v-0.1c0-0.2-0.2-0.7-0.6-1.4c-0.1-0.3-0.2-0.7-0.2-1.2
		c0-0.2,0-0.5,0-0.9l-1.1,0.2L-297.7,277z"/>
	<path class="st3" d="M-246,310.8l-0.9,0.5c0.1,0.5,0.2,0.9,0.2,1c0,0.2,0.1,0.3,0.1,0.4c0,0.1-0.1,0.4-0.2,0.8
		c-0.1,0.5-0.2,1.3-0.2,2.4c0,0.2,0.1,0.5,0.4,1.1l-0.1,1l0.1,1.2c0.1,1.1,0.4,1.8,1.1,2.2c0.3,0.2,1.3,0.5,3.1,1
		c0.7,0.2,1.2,0.3,1.6,0.3c1.1,0,1.7-0.1,2-0.4l1.2-1.2c0.1-0.1,0.3-0.2,0.8-0.4c0.3,0.3,0.6,0.4,0.9,0.4c0.1,0,0.3,0,0.4,0
		c0.2-0.4,0.4-0.7,0.5-0.9c0,0,0.3-0.2,0.9-0.5c0.1-0.1,0.5-0.6,1.1-1.6c0.6-0.5,0.9-0.8,0.9-0.8c0.1-0.1,0.2-0.5,0.5-1.2
		c0.2-0.5,0.3-1,0.3-1.3v-0.1c0-0.4-0.1-0.7-0.1-0.9v-0.1c0-0.1,0.1-0.5,0.2-1.1l-0.5-0.3l-0.2-0.4v-4.4c0-0.5-0.1-1.3-0.3-2.4
		c0,0,0-0.1,0-0.2c0-0.3,0.2-0.6,0.6-1c-0.1-0.2-0.1-0.4-0.2-0.4l-0.4-0.2c-0.1,0-0.1-0.3-0.1-0.9c0-0.1,0-0.2,0.1-0.4
		c0.1-0.4,0.1-0.7,0.2-1.1c0.3,0.1,0.6,0.2,0.7,0.2c0.2,0,0.8-0.2,1.8-0.6c0.3-0.1,0.7-0.3,1.2-0.4c0.3,1,0.5,1.7,0.5,2l-0.2,3.4v2
		c-0.2,1.5-0.3,2.5-0.4,2.9l-0.6-0.2c-0.2,0.4-0.3,0.8-0.3,1c0,0.1,0,0.3,0,0.5l1-0.1c0.1,0.4,0.1,0.6,0.1,0.8l0,0.8v0.3v1v0.5
		c0,0.7-0.1,1.5-0.3,2.2c0.3,0.3,0.5,0.5,0.5,0.6c0,0.2,0.1,0.7,0.1,1.5c0,0.5,0.1,1,0.4,1.3c0.1,0.2,0.4,0.4,0.9,0.6
		c-0.1,0.3-0.3,0.5-0.5,0.7c-0.1,0.1-0.6,0.3-1.6,0.7c-0.9,0.5-1.5,0.8-1.7,0.8c-0.2,0-0.4-0.1-0.6-0.3c-0.3-0.3-0.4-0.8-0.4-1.3
		c0-0.2,0-0.5,0-0.9c-0.4-0.1-0.7-0.1-1-0.1c-0.1,0-0.3,0-0.4,0.1c0,0-0.3,0.3-0.8,0.7l-0.6,0.3l-1,0.6l-0.9,0.3
		c-1.3,0.6-2.6,1-4.1,1c-0.7,0.2-1.1,0.3-1.3,0.3c-0.1,0-0.5-0.1-1.2-0.4c-0.1,0-0.1,0-0.2,0c-0.2,0-0.5,0.1-1.1,0.4l-0.9-1.1
		l-0.1,0c0,0-0.5,0.1-1.3,0.4c-0.1,0-0.3,0.1-0.4,0.1c-0.3,0-0.9-0.3-1.9-0.8c-0.4-0.2-0.8-0.6-1.1-1.1c-0.4-0.8-0.6-1.5-0.6-2.1
		c0-0.2,0.1-0.5,0.4-0.9l-0.7-0.3v-3.5c0.4-0.4,0.6-0.7,0.6-1c0-0.1-0.2-0.4-0.5-1v-2.1l-0.1-1.5c0-0.2,0.2-0.5,0.5-0.9V308
		l-0.8,0.2c0.1-1.2,0.2-2,0.2-2.5c0-0.3,0-0.6,0-0.9l-0.1-0.7c0-0.6-0.1-0.9-0.1-1l-0.3-0.9c0-0.2,0.3-0.4,0.9-0.6
		c0.4-0.1,1.1-0.4,2.1-0.7l0.3-0.1c0.4-0.3,0.6-0.4,0.8-0.4c0.2,0,0.4,0.1,0.5,0.2c0.1,0.1,0.2,0.5,0.5,1.2c0,0-0.1,0.3-0.2,0.7
		c-0.2,0.5-0.2,1.3-0.2,2.4c0,0.2,0.1,0.7,0.2,1.4c-0.3,1.2-0.5,1.9-0.5,2.1C-246.7,309-246.5,309.8-246,310.8z"/>
	<path class="st3" d="M-201.2,301.3l1-0.6c0.3,0.4,0.5,0.6,0.6,0.7c0,0,0.3,0.1,0.6,0.3c0.2,0.1,1.1,1,2.6,2.6c0.5,0.5,0.8,1,1,1.4
		c0.2,0.4,0.3,0.9,0.5,1.4c0.1,0.3,0.3,0.6,0.4,1.1l-0.2,0.2c-0.2,0-0.5-0.1-0.9-0.3l-1.2,0.4l-1-0.2l-0.9,0.2
		c-1.3-0.9-1.9-1.3-2-1.3c-0.1,0-0.6,0.4-1.4,1.2c-1.3-0.2-2-0.4-2.1-0.4c-0.3,0-0.7,0-1.2,0.1l-0.2-0.1c-0.3,0-1.2,0.1-2.6,0.1
		l-1.1,0.1l-1.4,0.1l-1.4,0.2l-1.3,0c-1.2,0.4-2,0.6-2.4,0.6c-0.1,0.7-0.2,1.2-0.3,1.4c-0.1,0.3-0.4,0.6-0.7,1c0.6,0.4,1,0.8,1,0.9
		c0.2,1.3,0.4,2.2,0.6,2.6l0.5,0.3l-0.2,1.1l0.9,0.2c0.2,0.8,0.5,1.4,0.8,1.7c0.3,0.3,0.8,0.4,1.5,0.5c0.1,0.6,0.3,1,0.5,1.1
		c0.2,0.1,0.5,0.2,1.1,0.2l0.5,0.8c0.2,0,0.4-0.1,0.6-0.1c0.1,0,0.7,0.3,1.8,0.8c0.2,0.1,0.5,0.2,0.8,0.2c0.3,0,0.8-0.1,1.5-0.4
		l1.9-0.2l1.5-0.4c0.7,0,1.2-0.1,1.4-0.2c0.3-0.1,1-0.5,1.9-1.1c0.9-0.5,1.4-0.9,1.5-1.1c0.4-0.4,0.7-0.9,1-1.5
		c0.2-0.2,0.4-0.4,0.9-0.4c0.2,0,0.4,0.1,0.8,0.4c-0.1,0.7-0.3,1.2-0.4,1.4c-0.9,1.4-1.4,2.4-1.6,2.9c-0.3-0.1-0.5-0.2-0.7-0.2
		c-0.1,0-0.5,0.2-1,0.6c-0.4,0.2-0.8,0.4-1.4,0.4c-1.3,0.3-2.1,0.5-2.6,0.6c-0.8,0.1-1.4,0.2-1.6,0.2c-0.6,0.2-1,0.3-1,0.3l-1.8-0.3
		l-1.1,0.2l-0.5,0c-0.5,0.1-0.9,0.1-1.1,0.1c-0.3,0-1-0.1-2.2-0.2l-0.6-0.1l-0.6-0.4c-1.5-0.5-2.4-0.7-2.5-0.8
		c-0.1-0.1-0.4-0.4-1-0.9c0,0-0.4-0.3-1.1-0.7c-0.6-0.3-0.9-0.6-0.9-0.8l-0.5-1c-0.1-0.2-0.4-0.5-1-1.2c0.2-0.3,0.3-0.6,0.3-0.7
		c0-0.1-0.3-0.6-0.8-1.7c-0.1-0.3-0.2-1.1-0.2-2.6c0-0.4,0.1-1.2,0.4-2.2c0.2-0.8,0.4-1.2,0.5-1.4l1-1.2l0.7-1.4
		c0.7-0.6,1.5-1.4,2.4-2.2l2.2-1.4l2.2-1.5l0.8-0.2l2.3-0.7l1.5-0.1c1.2-0.4,1.9-0.7,2-0.7C-202.4,299.7-201.6,300.3-201.2,301.3z
		 M-204.8,305.9l0.5,0.6c0.4-0.1,0.7-0.1,0.8-0.2c0.5-0.1,1.1-0.2,1.6-0.4l1.7,0.2c0,0,0.1-0.1,0.2-0.3c0-0.1,0-0.2,0-0.3
		c0-0.2-0.1-0.4-0.4-0.7c0,0-0.1-0.2-0.3-0.4c-0.5-0.6-0.8-1-0.9-0.9l-1-0.5c-0.1-0.1-0.3-0.3-0.6-0.7c-0.6-0.1-1.6-0.1-3-0.1
		l-0.6,0l-1,0.6c0,0-0.6,0.2-1.7,0.4c-0.9,0.3-1.6,0.6-2.2,0.9c-0.1,0.1-0.5,0.4-1.2,1c-0.1,0.1-0.4,0.3-0.7,0.5v0.2l0.1,0.1
		l2.2,0.9l0.7,0.7l1.2-1.4c0.1-0.1,0.2-0.1,0.3-0.1c0.1,0,0.6,0.1,1.5,0.4c0,0,0,0,0.1,0c0.3,0,0.8-0.1,1.7-0.3
		C-205.5,306-205.2,305.9-204.8,305.9z"/>
	<path class="st3" d="M-186.8,303c0.1-0.4,0.3-0.7,0.6-1c0.2-0.2,0.7-0.5,1.6-0.9c0.9-0.5,1.4-0.8,1.5-0.8c0.4,0,0.6,0.1,0.8,0.4
		l0.1,0.5l0.2,0.9c-0.1,0.2-0.1,0.4-0.1,0.5c0,0.2,0.1,0.4,0.3,0.6c0.4-0.1,1-0.4,1.6-0.8l1.3-0.4l1.3-0.9l0.8-0.3
		c0.4-0.2,0.7-0.3,0.7-0.3l0.7,0.1c0,0,0.1,0,0.1,0c0.1,0,0.8-0.2,2.1-0.6c0.1,0,0.4-0.1,0.9-0.1c0.3,0,0.6,0.1,0.7,0.2
		c0,0,0.2,0.2,0.6,0.6c0.2,0.1,0.4,0.1,0.4,0.1c0,0,0.3-0.1,0.9-0.4c0,0,0.1,0,0.2,0c0.3,0,0.6,0.2,0.9,0.5c0.3,0.3,0.6,0.7,0.7,1.3
		c-0.3,0.3-0.9,0.8-1.8,1.4c-0.4,0.6-0.8,0.9-1,0.9c-0.3,0-0.8-0.3-1.3-1c-0.4,0-0.7,0.1-0.9,0.1c-0.3,0-0.7-0.1-1.3-0.4
		c-0.5-0.2-1-0.3-1.5-0.4c-0.2,0.4-0.5,0.6-1,0.7c-0.6,0-0.9,0.1-1.1,0.1l-1.2,0.4c-0.1,0-0.2-0.1-0.5-0.2c-0.4,0.4-1.1,0.9-2.1,1.6
		c-0.6,0.5-1,1.3-0.9,2.5v0.1c0,0.2,0,0.6,0,1c0,0.4,0,0.7,0,0.9c0,0.2-0.2,0.6-0.7,1c0.3,0.4,0.5,0.7,0.5,0.9c0,0.1,0,0.3-0.1,0.5
		l0.5,0.1l0.1,0.9l0.2,5.4l-0.1,0.3l-0.8,0.4c-1.1,0.2-1.7,0.4-1.7,0.5s0.6,0.2,1.9,0.4l0.5-0.1c0.2,0.7,0.3,1.1,0.3,1.4
		c0,0.5-0.2,0.8-0.7,1.1c-0.2,0.1-0.7,0.2-1.5,0.3c-0.2,0-0.6,0.3-1.3,0.8c-0.1,0.1-0.3,0.1-0.4,0.1c-0.5,0-0.7-0.2-0.7-0.6
		c0-0.1,0.2-0.7,0.5-1.7c0-0.1,0.1-0.2,0.1-0.4c0,0-0.1-0.5-0.2-1.4c0-0.1,0-0.2,0.1-0.5l0.7-0.2c0-0.2,0-0.3,0-0.5
		c0-0.3-0.2-0.6-0.5-0.9c0-0.3,0-0.5,0-0.8c0-0.2-0.1-0.7-0.2-1.4c0.1-0.7,0.1-1.2,0.1-1.7c0.7-0.3,1.1-0.6,1.1-1
		c0-0.1,0-0.3-0.1-0.5c-0.2,0.1-0.4,0.1-0.6,0.1c-0.1,0-0.3-0.1-0.5-0.2c0-0.4,0-0.9,0-1.3v-0.6v-0.8v-0.2c0-0.2,0-0.3,0-0.5
		c0-0.2,0-0.4,0-0.5c0-0.3,0.1-0.8,0.4-1.3c-0.3-0.2-0.4-0.4-0.5-0.6c0-0.1-0.1-0.7-0.1-2C-186.1,304-186.3,303.6-186.8,303z"/>
	<path class="st3" d="M-168.9,322.9l0.4-0.3l2.8-3.9c0.3-0.4,0.7-0.9,1.2-1.3c0.5-0.5,0.9-0.8,1-1s0.3-0.5,0.5-1
		c0.2,0,0.4,0.1,0.6,0.1c0.3,0,0.7-0.4,1.2-1.1l-0.2-0.7c0.4-0.5,0.7-0.8,0.9-1.1c0.3-0.3,0.6-0.7,1.1-1.3c0.5-0.7,1-1.3,1.5-1.9
		l0.7-0.1c0.2-0.1,0.3-0.4,0.4-0.8c0.1-0.5,0.2-0.8,0.3-0.9c0.1-0.1,0.5-0.6,1.3-1.5c0.8-1.4,1.3-2.3,1.6-2.7
		c-0.4-0.6-0.8-1.1-1.2-1.4c-0.2-0.2-0.3-0.3-0.4-0.2l-3.5,1.2l-2.1-1.1l-1.3-0.2l-0.8-0.4l-1,0.5l-2.1,0.3c-0.3,0.1-0.6,0.4-1.1,1
		c-0.2-0.2-0.3-0.4-0.3-0.5c0-0.2,0.4-0.6,1.2-1.2c0.3-0.2,0.7-0.7,1.4-1.5c0.5,0,0.9,0.1,1.1,0.1c0.2,0.1,0.4,0.1,0.5,0.1
		c0.1,0,0.4-0.1,0.7-0.2c0.4,1.3,0.9,1.9,1.5,1.9c0.2,0,0.3-0.1,0.4-0.2l0.7-1.2l0.8,0.1l0.8-0.1l0.6,0.1l0.8,0.1l1.2,0.5l0.6,0
		l1.1-0.1l1.2-0.2l1,0.1l1-0.2c0.7,0,1.2-0.1,1.5-0.1c0.4-0.1,0.7-0.2,1.2-0.2c0.4,0.4,0.5,0.7,0.5,0.9c0,0.2-0.3,0.7-0.9,1.5
		c-0.9,1.1-1.5,1.9-1.8,2.3l-1.2,0.1c0,0.4,0,0.7-0.1,0.8c-0.1,0.1-0.3,0.4-0.8,0.9c-0.5,0.6-1,1.1-1.2,1.5l-0.8,0.3v0.2
		c0,0.4-0.1,0.7-0.1,0.8s-0.4,0.4-1,1c-0.7,1-1.1,1.5-1.2,1.5c-0.2,0.2-0.5,0.4-0.9,0.6v0.7c0,0.1-0.2,0.3-0.5,0.6
		c-1.2,1.7-2,2.7-2.2,2.8c-0.3,0.2-0.7,0.3-1.2,0.3c-0.2,0.4-0.3,0.7-0.3,1c0,0.1,0,0.3,0.1,0.5c-0.4,0.5-0.8,1.2-1.2,2
		c0.5,0.1,0.9,0.1,1,0.1c1.5,0.1,2.6,0.3,3.3,0.6c0.4-0.3,0.6-0.4,0.7-0.4l3.1-0.1l3.8-0.2c0.1,0,0.4,0.1,0.8,0.2
		c0.4,0.1,1,0.3,1.9,0.4l0.2-0.2l0.1-0.6c1.1-0.3,1.9-0.5,2.5-0.5c0.1,0.3,0.1,0.5,0.1,0.7c0,0.1-0.1,0.4-0.3,0.7
		c-0.3,0.4-0.5,0.7-0.6,1h-0.4c-0.3,0.7-0.5,1.1-0.7,1.2c-0.1,0-0.3,0.1-0.8,0.2c-0.5,0.1-0.8,0.1-0.9,0.1c-0.1,0-0.7-0.1-1.6-0.4
		l-3,0l-1.9-0.6l-1,0.2l-1.2,0.2c-0.4,0.1-0.7,0.1-0.9,0.1c-0.1,0-0.6-0.1-1.5-0.2c-0.8,0.3-1.5,0.4-2.2,0.5h-1.3h-0.6
		c-0.2,0-0.8,0-1.7,0.1h-0.9c-0.4,0-0.6,0-0.8,0c-0.1,0-0.2,0-0.3,0c-0.2,0-0.3-0.1-0.5-0.2c-0.2-0.2-0.3-0.3-0.3-0.4V322.9z"/>
	<path class="st3" d="M-135.8,313c0.2-0.4,0.5-0.6,0.7-0.8c0.2-0.1,0.8-0.3,1.8-0.5c0.8-0.4,1.3-0.6,1.5-0.7c0.2,0,0.8-0.1,1.8-0.2
		l1-0.3l0.6-0.1l0.5-0.1h1.2l2.4-0.3c0.7-0.1,1.2-0.2,1.3-0.3c0.4-0.3,0.5-0.6,0.5-1.2c0-0.1-0.1-0.4-0.2-1l1.6-2
		c0,0-0.6-0.2-1.9-0.6c-0.1,0-0.4-0.1-0.9-0.1c-0.9-1.1-1.4-1.7-1.5-1.9c-0.2-0.1-1-0.2-2.3-0.4h-1c-0.4-0.1-0.7-0.2-0.9-0.2
		c-0.2,0-0.4,0-0.7,0.1l-0.6-0.7c-0.4,0.2-0.8,0.4-1,0.7c-0.2,0.2-0.5,0.4-0.9,0.6c-1.1,0.4-1.9,0.9-2.6,1.5l-0.4,0.3
		c-0.3,0.4-0.4,0.6-0.5,0.6c-0.2,0.1-0.5,0.2-0.9,0.2c-0.1,0-0.5-0.1-1.1-0.3c-0.7-0.2-1.1-0.3-1.3-0.4c-0.2-0.1-0.4-0.4-0.7-0.8
		c0.3-0.3,0.6-0.5,0.7-0.6c0.3-0.3,0.6-0.5,0.7-0.5l1.4-0.3l0.9-0.5l1.9-0.6l1.2-0.5h1.2l1.4-0.4l0.6,0l1.1-0.2c1,0,1.6,0,1.9,0
		c0.3,0,0.8,0.2,1.6,0.4l0.7,0.1c0.8,0.1,1.3,0.2,1.7,0.3c0.3,0,0.6,0.2,1.1,0.7c-0.3,0.3-0.5,0.6-0.5,0.8c0,0.3,0.1,0.4,0.4,0.4
		c0.2,0,0.4-0.1,0.7-0.2c0.2-0.1,0.5-0.2,0.9-0.3c0.3,0.3,0.4,0.6,0.4,1l0.8,0.5c0,0.2,0.1,0.4,0.1,0.4l-0.1,1.2
		c0.2,0.9,0.4,1.4,0.7,1.7h0.1c0.1,0.4,0.1,0.9,0.2,1.5c0.1,1.2,0.1,2,0.1,2.3c-0.5,0.3-0.7,0.6-0.7,0.8c0,0.3,0.3,0.6,0.8,0.8
		c0,0.3,0,0.5,0,0.7c0,0.2,0,0.5-0.1,1.1c0,0.2,0,0.4,0,0.7c0,0.7,0.1,1.5,0.3,2.5c-0.4,0.4-0.5,0.7-0.5,1.1c0,0.3,0.2,0.7,0.5,1.2
		c0,0.1,0.1,0.3,0.2,0.6c0.1,0.1,0.2,0.4,0.3,0.8c-0.2,0.3-0.4,0.5-0.5,0.8c-0.2,0.1-0.5,0.3-0.9,0.5l-1.2,0.5l-0.7,0.2
		c-0.7,0.3-1.2,0.4-1.2,0.4c-0.2,0-0.4-0.1-0.7-0.3l0.5-2c-0.6,0.1-1.4,0.5-2.6,0.9l-0.9,0.2c-0.5,0.1-0.8,0.2-0.8,0.2l-1.1-0.1
		l-1.1,0.6l-0.6,0.1l-2.5,0.5l-1.3-0.1c-0.6,0.2-1.1,0.3-1.3,0.3c-0.3,0-1.1-0.1-2.4-0.4l-1.3-0.1l-0.9-0.4
		c-0.7-0.3-1.2-0.5-1.6-0.8c-0.3-0.2-0.5-0.6-0.7-1.2l-0.7-0.2c-0.1-0.2-0.2-0.6-0.3-1.1l-0.3-1.3v0c0-0.2,0.1-0.5,0.4-0.9
		c0.2-0.3,0.5-0.8,0.9-1.5c1-1,1.7-1.6,2-1.9c0.3-0.2,0.9-0.5,1.9-0.9c0.6-0.4,0.9-0.5,1.1-0.5C-136.3,313-136.1,313-135.8,313z
		 M-137.7,319.5c-0.2,0.3-0.3,0.5-0.5,0.8c-0.2,0.4-0.3,0.6-0.3,0.7l0.3,0.6l0.9-0.7c0.7,0.5,1.2,0.8,1.4,0.8
		c0.7,0.2,1.2,0.3,1.2,0.3c0.1,0.1,0.3,0.3,0.5,0.6c0.5,0.1,0.8,0.1,0.9,0.1c0.2,0,0.3,0,0.4,0c0.2,0,0.5-0.1,0.8-0.4
		c0.3,0.2,0.5,0.3,0.7,0.3c0,0,0.3-0.1,0.7-0.4l0.9,0.2l1.6-0.6l0.8-0.4l0.7,0.1l1.2-0.5l1.3-0.5c0.3-0.5,0.6-0.8,0.6-0.9
		c0.2-0.2,0.5-0.3,1.1-0.5l0.2-1c0.4-0.2,0.6-0.5,0.7-0.9c-0.3-0.2-0.5-0.4-0.6-0.6c0-0.3,0-0.6,0-0.8v-0.5c0-0.5,0-1-0.1-1.4
		c0-0.1,0-0.2,0-0.3c0-0.2,0.1-0.6,0.2-1.1c-0.2,0-0.4-0.1-0.7-0.4l-1.3,0l-1.2-0.1l-0.9,0h-0.6c-0.1,0-0.4-0.2-0.9-0.5l-0.7,0.2
		c-0.8,0-1.4,0.1-1.8,0.2c-0.2,0.1-0.4,0.2-0.6,0.2c0,0-0.3-0.1-0.7-0.2c0,0,0,0-0.1,0c-0.1,0-0.4,0.2-1,0.5
		c-0.1,0.1-0.6,0.3-1.6,0.6c-1.3,0.6-2.2,1.1-2.8,1.6c-0.1,0.1-0.3,0.4-0.7,0.9c-0.1,0.2-0.5,0.4-1.1,0.5c-0.1,0.1-0.1,0.3-0.1,0.3
		c0,0.1,0.1,0.2,0.2,0.4l0.2,1.6C-138.2,318.9-138,319.2-137.7,319.5z"/>
	<path class="st3" d="M-100.3,332.3c0.1-0.3,0.2-0.4,0.3-0.5l0.9-0.5c0.2-0.2,0.6-0.6,1.2-1.5c0.1-0.1,0.3-0.3,0.7-0.6
		c0.2-0.2,0.4-0.4,0.6-0.7c0-0.2,0-0.3,0-0.5c0-0.4,0.3-0.9,0.8-1.4c0.8-0.7,1.2-1.2,1.4-1.5l1.7-3c0,0,0.2-0.1,0.6-0.2l0.1-0.1
		c0-0.2,0-0.4,0-0.6c0-0.2,0-0.4,0.1-0.5l0.8-1l3-4.7l0.1-0.3c-0.2-0.1-0.3-0.2-0.4-0.2c0,0-0.2,0-0.3,0.1c-0.1,0-0.2,0-0.3,0
		c-0.2,0-0.4,0-0.6,0c-0.1-0.4-0.2-0.7-0.2-0.9c0-0.1,0.1-0.3,0.4-0.7c0.2-0.5,0.3-0.9,0.5-1.2c0.3-0.4,0.5-0.8,0.7-1
		c0.4,0,0.7,0,0.9,0.1l1.3,0.5l0.1-0.1c0.1-0.2,0.1-0.4,0.1-0.5c0-0.2-0.1-0.4-0.2-0.7c0.4-0.2,0.6-0.4,0.6-0.5l0.6-1.2
		c0.1-0.3,0.5-0.7,1.2-1.3c0.1-0.5,0.1-0.8,0.2-0.9c0.1-0.1,0.5-0.5,1.2-1.1c0.1-0.1,0.3-0.6,0.7-1.6c0.1-0.3,0.7-1.1,1.7-2.6l2-3.9
		l0.8-0.9c0-0.4,0.1-0.6,0.1-0.6c0-0.1,0.3-0.5,0.9-1.2c0-0.1,0.1-0.1,0.1-0.2c0-0.1,0-0.3-0.1-0.5c0.2-0.2,0.4-0.4,0.6-0.9
		c0.2-0.4,0.4-0.7,0.6-1l0.6,0.9c0.1-0.2,0.2-0.4,0.2-0.5c0-0.2-0.1-0.4-0.2-0.7c0.2-0.5,0.4-0.8,0.5-0.9c0.4-0.6,0.6-0.9,0.6-1
		c0,0,0-0.2,0-0.7c0-0.1,0.1-0.3,0.3-0.7c0.1-0.1,0.3-0.6,0.6-1.5c0-0.1,0.2-0.4,0.3-0.8l1.3-0.1l-0.1-0.4l-0.8-0.4v-0.5
		c0.3-0.2,0.5-0.5,0.7-0.8l-0.3-0.3v-0.1c0.3-0.3,0.6-0.7,0.9-1.2c0.3-0.5,0.5-0.9,0.7-1.2c-0.2-0.3-0.2-0.5-0.2-0.7v-0.2v-0.3V279
		l2.5-1.7l0.6,0.4c0.2-0.4,0.3-0.6,0.4-0.8c0.1-0.3,0.3-0.5,0.4-0.5s0.3,0,0.5,0.1c0.1-0.4,0.3-0.7,0.6-0.9c0.4-0.3,0.8-0.5,1.1-0.5
		c0.6,0,0.9,0.7,1,2.2c0.2,1,0.3,1.6,0.4,2c0.1,0.6,0.3,1.3,0.8,2.1c0.3,1.1,0.4,1.7,0.4,2.1c0,0.2,0,0.5,0,0.7l-1.2,0.6
		c0.2,0.4,0.4,0.7,0.5,0.8c0.1,0,0.6,0.2,1.4,0.4c0.4,0.1,0.8,0.7,1.2,1.8c0.3,0.7,0.5,1.2,0.5,1.4c0,0.1-0.1,0.4-0.4,0.8
		c0.3,0.3,0.5,0.5,0.6,0.6c0.5,0.4,0.8,0.7,0.8,0.8l0.4,0.9l0.6,1.5c0.1,0.1,0.1,0.5,0.2,1c0.6,0.6,1,1.3,1.1,2
		c0.1,0.5,0.1,0.8,0.1,0.9l0.7,1c0.1,0.2,0.5,1,1.3,2.6l-0.7,0.4c0.1,0.4,0.3,0.7,0.5,0.9l0.5,0.1l-0.1,0.7c2.1,2,3.1,3.9,3.2,5.7
		c0.1,0.4,0.5,1.4,1.3,2.8c1.1,2.1,1.7,3.3,1.8,3.6c0.2,0.4,0.4,0.9,0.7,1.3l1.9,4.2L-45,322c1.2,0.6,1.8,1.3,1.8,1.9
		c0,0.3-0.3,0.6-0.9,0.9c0.2,0.3,0.3,0.6,0.5,0.6c0,0,0.2,0.1,0.6,0.2c0.3,0.1,0.6,0.5,0.9,1.1c0.2,0.3,0.4,1,0.8,2.2
		c0.9,1.3,1.4,2.2,1.6,2.6c-0.4,0.3-0.6,0.6-0.6,1c0,0.1,0,0.3,0,0.5c-0.7,0.3-1.2,0.5-1.5,0.5c-0.1,0-0.5,0.1-1.1,0.1
		c-0.3,0-1,0.3-2.1,0.7c-0.5-1.2-0.8-2-0.9-2.6c-0.1-0.4-0.3-0.9-0.6-1.4c-0.5-1.5-0.8-2.3-0.8-2.5c0-0.1,0-0.3,0-0.5
		c-0.4-0.3-0.6-0.6-0.6-0.9c0-0.1,0-0.4-0.1-0.9c0-0.2-0.1-0.4-0.1-0.5c0-0.2,0.1-0.6,0.3-1l-0.9-0.8c0.2-0.3,0.4-0.5,0.5-0.6
		c0.2-0.2,0.3-0.3,0.3-0.4c0-0.1,0-0.3-0.1-0.4l-1.5,0.1c-0.5-0.6-0.8-1.2-1-1.5c-0.1-0.2-0.3-0.9-0.5-1.9l-0.5-1.1
		c-0.2-1.3-0.4-2.1-0.5-2.3c-0.3-0.7-0.9-1.1-1.7-1.1c-0.7,0-1.1,0.8-1.2,2.3c-0.2,0.1-0.3,0.1-0.3,0.1c-0.2,0-0.5-0.1-0.9-0.4
		c-0.6-0.4-1.2-0.7-1.8-0.8c-0.3,0-0.7-0.2-1.3-0.5c-0.7-0.3-1.3-0.5-1.8-0.5c-0.2,0-0.7,0.1-1.7,0.3l-0.9-0.2l-1,0.1h-0.8l-0.8,0.1
		l-1.4,0c-0.6,0-1,0-1.2,0l-0.5,0l-1.9-0.4l-0.9,0.2c-0.6-0.2-1-0.3-1.1-0.3c-0.1,0-0.6,0.1-1.5,0.3c-0.6,0.1-1.2,0.2-1.7,0.3
		l-0.9-1c-0.6,0.1-1.3,0.4-1.9,0.7c-0.1,0-0.5,0.1-1.3,0.2c-0.3,0-0.5,0.1-0.5,0.1c-0.2,0-0.5,0-0.9-0.1c-0.5-0.1-1-0.2-1.3-0.2
		c-0.3,0-0.8,0.1-1.5,0.3c-0.4,0.1-0.9,0.2-1.3,0.2c-0.2,0.4-0.4,0.6-0.4,0.7c-0.3,0.6-0.7,1.2-1.2,1.8c-0.3,0.5-0.8,1.3-1.4,2.4
		l-0.5-0.1c-0.2,0.2-0.2,0.3-0.2,0.5c0,0.1,0,0.3,0.1,0.6c0,0.1,0,0.3,0.1,0.5c-0.4,0.4-0.6,0.7-0.6,0.8l-1.5,2.9
		c-0.3,0.4-0.5,0.9-0.9,1.4l-0.3,0.4l-1.7,1.1c-0.1,0.1-0.1,0.2-0.1,0.3c0,0.2,0.2,0.5,0.7,0.9l-0.5,1.4c-0.5,0.2-0.8,0.3-1,0.5
		c-0.3,0.2-0.6,0.6-0.9,1.3c-0.6,0.2-1,0.4-1.1,0.5c-0.3,0.2-0.5,0.3-0.6,0.3c-0.1,0-0.3-0.1-0.6-0.3c-0.1-0.1-0.2-0.1-0.4-0.1
		c-0.1,0-0.3,0-0.4,0C-99.4,332.7-99.9,332.4-100.3,332.3z M-83.5,311.2c0.4-0.2,0.7-0.4,0.8-0.4c0.1,0,0.4,0.1,0.6,0.4l0.9-0.1
		l0.4,0.6c0.4-0.1,1-0.2,1.7-0.2h2.7c0.5,0,1.2,0.2,2,0.5c0.9,0.1,1.5,0.1,2,0.2c0.4,0.6,0.9,0.9,1.5,0.9l1.9-0.9l1,0.2h1.7l0.7,0.2
		l0.9-0.1l0.8,0.1l0.8-0.1l0.8,0.2l1.8-0.3l1.4-0.1l2.7-0.3l2.2,0.2c0.3,0,0.5-0.1,0.5-0.4c0-0.1-0.1-0.4-0.3-1
		c0-0.2-0.1-0.4-0.1-0.7c-0.4-0.3-0.7-0.6-0.9-0.9c-0.7-1.4-1.1-2.2-1.2-2.2c-0.2-0.3-0.4-0.6-0.5-1c-0.1-0.3-0.2-0.7-0.5-1.1
		c0.1-0.5,0.2-1,0.2-1.3c0-0.2-0.1-0.5-0.2-1l-1.1,0.2c-0.2-0.5-0.4-0.8-0.4-0.9l-0.2-0.8l-0.7-0.9l-0.8-1.3l-0.3-0.6
		c-0.1-0.8-0.4-1.6-0.8-2.2c-0.3-0.5-0.4-1-0.4-1.3l0.6-0.3c-0.2-0.3-0.5-0.5-0.8-0.5c-0.1,0-0.3,0-0.4,0c-0.2-0.4-0.3-0.7-0.4-0.8
		c-0.5-0.7-0.7-1.1-0.7-1.1l-0.2-1.2L-64,290l-0.5-1.1l-1-1.2L-66,286l-0.5-0.9c-0.3-0.5-0.6-1.1-0.9-1.5c-0.5,0.3-0.9,0.6-1,1
		c-0.3,0.7-0.5,1.3-0.5,1.8h-0.2c-0.3,0.6-0.8,1.3-1.3,2l-1.8,3.3c-0.3,0.6-0.5,1.1-0.6,1.5c-0.4,0.2-0.6,0.5-0.7,0.9
		c-0.4,0.9-0.9,1.4-1.6,1.7l0.2,0.9l-0.5,0.2h0c-0.4,0-0.7-0.1-1-0.1l-0.2,0.4l0.8,0.5c-0.2,0.8-0.6,1.6-1.1,2.4
		c-1,1.8-1.9,3-2.7,3.5c-0.2,0.1-0.3,0.4-0.4,1c0,0.4-0.1,0.8-0.3,1.1l-0.8,1.5l-0.7,0.8l-0.4,0.9c-0.5,0.7-0.8,1.3-0.9,1.5
		C-83.3,310.5-83.4,310.9-83.5,311.2z"/>
	<path class="st3" d="M-20.6,312.3l-0.8,0.6c-0.8-0.2-1.4-0.3-1.9-0.3c-0.5,0-1.2,0-2,0.1c-0.2-0.5-0.5-0.8-0.9-1.1l-0.6,0.8
		c-0.4,0.1-0.9,0.2-1.5,0.3c-0.2,0.1-0.5,0.1-0.6,0.1c0,0-0.1,0-0.2,0l-1.2-0.2c0,0-0.1,0-0.1,0.1l-0.6-0.6
		c-0.3,0.1-0.6,0.2-0.8,0.2c-0.1,0-0.3-0.1-0.8-0.3c-0.1,0-0.3-0.1-0.5-0.2c-1.6-0.5-2.3-1.4-2.3-2.7c0-1.1,0.4-2.1,1.2-3.2
		c0.2-0.3,0.8-0.8,1.7-1.6l0.6-0.6l1.4-0.9c1.5-0.9,2.5-1.5,3.2-1.8c1.6-0.6,2.8-1,3.8-1c0.2,0,1.1,0.2,2.7,0.6l1.6-0.3
		c1,0.1,1.6,0.1,1.7,0.2c0.4,0.2,0.6,0.4,0.6,0.6c0,0.2-0.1,0.4-0.3,0.6c-0.1,0-0.6,0.3-1.5,0.9c-1,0.6-1.5,0.9-1.6,0.9
		c-1.3,0-2.3-0.1-2.9-0.3c-0.2-0.4-0.4-0.8-0.6-1h-0.2l-0.6,0.6c-0.3,0-0.6,0-0.8,0c-0.2,0-0.4,0-0.5,0c-0.2,0-0.4,0-0.5,0
		c0,0-0.3,0.1-0.8,0.2c-0.2-0.1-0.5-0.2-0.9-0.2c-0.4,0.3-1.1,0.7-2,1.2c-0.5,0.3-0.9,0.7-1.3,1.2s-0.5,1-0.5,1.5
		c0,0.2,0.2,0.5,0.6,0.9c0.1,0.1,0.4,0.2,1.1,0.5c0.4,0.2,0.8,0.4,1.2,0.7c0,0.2,0,0.3,0,0.4c0,0.4,0.2,0.6,0.5,0.6
		c0.3,0,0.7-0.3,1.1-0.8c0.5,0.1,0.9,0.1,1.2,0.1c0.1,0,0.7-0.1,1.7-0.3l1,0.1c0.9-0.1,1.4-0.2,1.5-0.2c0.1,0,0.7,0.1,1.5,0.4
		l1.1-0.1l1.1,0.8c1.2,0.5,2,1.1,2.4,1.5c0.3,0.4,0.5,0.7,0.5,1l0.2,1c0.3,1.2,0.4,1.9,0.4,2.1c0,0.1,0,0.5-0.1,1.1
		c-0.1,1.3-0.5,1.9-1.1,1.9c-0.2,0-0.4,0-0.7-0.1c-0.2,1-0.4,1.6-0.6,1.7c-0.9,1.1-1.5,1.8-1.8,2.1c-1,0.1-1.9,0.5-2.6,0.9
		c-0.3,0.2-0.5,0.4-0.5,0.4s-0.3,0.1-0.8,0.1l-2.5,0.7c-0.8-0.1-1.3-0.2-1.3-0.2c-0.1,0-0.7,0.2-1.8,0.5l-0.7-0.1
		c-1-0.1-1.7-0.1-2.2-0.2c-1.1-0.3-1.6-0.5-1.7-0.6l-1-0.6c-1.2-0.7-1.9-1.3-2.2-1.6c-0.6-0.7-0.9-1.4-0.9-2.1
		c0-0.1,0.2-0.4,0.7-0.7l0.8-0.8c0.8-0.6,1.2-0.9,1.3-0.9c0.1,0,0.2,0,0.2,0.1c0.5,0.4,0.7,0.9,0.7,1.5l-0.1,1v0
		c0,0.2,0,0.3,0.2,0.4c0.1,0.1,0.4,0.3,1.1,0.7c0.1,0.1,0.3,0.2,0.5,0.4c0.5,0.4,0.8,0.7,0.8,0.7l1.1,0.5l1,0.5h1.2l0.7,0.2
		c0.8-0.2,1.4-0.3,2-0.4c0.6,0,1-0.1,1.2-0.2l1.2-0.6c0.6-0.2,1-0.4,1.1-0.5c0.4-0.3,0.9-1,1.5-2c0.6-1.1,1-2.3,1-3.7
		c0-0.3-0.1-0.6-0.3-0.9C-19.9,313.6-20.4,312.8-20.6,312.3z"/>
	<path class="st3" d="M-9.3,302.4c0.2-0.8,0.4-1.2,0.8-1.2h0l1.5,0.1h0.1c1.1-0.2,1.8-0.3,1.9-0.3c0-0.4,0-0.6,0-0.7
		c0-1.9,0-3.5-0.1-4.7c0-0.5-0.2-1-0.4-1.4l-0.3-0.6c-0.1-0.2-0.1-0.3-0.1-0.5c0-0.3,0.2-0.7,0.7-1.1c0.7-0.7,1.7-1.1,2.9-1.4
		c0.3-0.5,0.5-0.8,0.9-0.8c0.1,0,0.2,0.1,0.3,0.2c0.3,0.3,0.4,0.7,0.4,1.2c0,0-0.1,1.6-0.3,4.8c-0.2,0.8-0.4,1.3-0.5,1.5
		c-0.1,0.3-0.3,0.6-0.7,0.9c0,0.4,0.1,0.8,0.2,1.2h0.7l-0.2,1.5c0.5,0,1.6,0.3,3.2,0.7c0.1,0,0.4,0,1,0c0.4,0,1-0.1,1.8-0.4l2-0.2
		c1-0.4,1.6-0.6,1.8-0.6c0.3,0,0.6,0,1,0.1c0,0.6-0.1,1-0.2,1.2c-0.1,0.3-0.7,0.8-1.9,1.5c-0.3,0.2-0.5,0.3-0.6,0.5
		c-0.3,0.4-0.5,0.5-0.5,0.5c-0.1,0.1-0.3,0.1-0.7,0.1c-0.3,0-0.5,0-0.7-0.1l-1.2-0.7l-0.8-0.2l-0.9-0.7l-1.5,1.2l-1.3-0.2
		c-0.1,0-0.3,0.1-0.6,0.3c0.2,1,0.2,1.8,0.2,2.5c0,0.3,0,0.8,0,1.4c-0.7,0.1-1.1,0.4-1.1,0.9c0,0.2,0,0.4,0.1,0.7
		c0.4,0,0.8,0.1,1.1,0.2l-0.1,3.8c-0.3-0.1-0.6-0.1-0.8-0.1c-0.4,0-0.5,0.2-0.5,0.5c0,0.2,0.1,0.5,0.3,0.9c0.3-0.2,0.5-0.3,0.7-0.3
		c0.3,0,0.5,0.2,0.5,0.6l-0.1,1.2v0.1c0,0.8,0.1,1.4,0.1,1.8c0,0.4,0.2,0.8,0.4,1.2l0.4,0.6c0,0.1,0.1,0.2,0.1,0.4
		c0,0.2,0,0.4-0.1,0.7c0.6,0.4,1.3,0.5,2.1,0.5c0.6,0,1.3-0.2,1.9-0.5c0.5-0.3,0.8-0.4,0.9-0.5l1.7-1.5c0.8-0.7,1.3-1,1.5-1
		s0.4,0.1,0.8,0.3c-0.1,0.4-0.1,0.6-0.1,0.8c-0.1,1.1-0.3,1.7-0.4,1.8c-0.1,0.2-0.8,0.4-1.9,0.8c-0.8,0.4-2.1,0.9-3.8,1.5l-1,0.3
		c-0.7,0.4-1.1,0.6-1.2,0.6c-0.2,0-0.4-0.2-0.6-0.5l-0.5-0.2l-0.3,0.8c-0.3,0-0.5,0.1-0.7,0.1c-0.5,0-1.2-0.3-1.9-1
		c-0.3-0.3-0.6-0.7-0.8-1c0,0-0.1-0.3-0.2-0.8c-0.2-0.7-0.3-1.1-0.3-1.2c0-0.2,0-0.5,0.1-0.9c0-0.3,0.1-1,0.1-2
		c0-0.7,0.2-1.2,0.5-1.5c-0.1-0.4-0.2-0.9-0.2-1.4c-0.1-0.9-0.2-2.7-0.2-5.3c0.5-0.3,0.7-0.6,0.7-0.9c0-0.2,0-0.4-0.1-0.6l-0.9-0.2
		l-0.1-0.3v0c0-0.1,0-0.3,0.1-0.6c0.1-0.5,0.2-1.4,0.2-2.7c-0.8-0.2-1.4-0.3-1.8-0.3c-0.1,0-0.6,0.1-1.6,0.2l-0.6,0.1
		c-0.6,0.2-0.9,0.3-0.9,0.3c-0.3,0-0.4-0.1-0.4-0.4C-10.6,303.3-10.1,302.8-9.3,302.4z"/>
	<path class="st3" d="M13.6,303c0.1-0.4,0.3-0.7,0.6-1c0.2-0.2,0.7-0.5,1.6-0.9c0.9-0.5,1.4-0.8,1.5-0.8c0.4,0,0.6,0.1,0.8,0.4
		l0.1,0.5l0.2,0.9c-0.1,0.2-0.1,0.4-0.1,0.5c0,0.2,0.1,0.4,0.3,0.6c0.4-0.1,1-0.4,1.6-0.8l1.3-0.4l1.3-0.9l0.8-0.3
		c0.4-0.2,0.7-0.3,0.7-0.3l0.7,0.1c0,0,0.1,0,0.1,0c0.1,0,0.8-0.2,2.1-0.6c0.1,0,0.4-0.1,0.9-0.1c0.3,0,0.6,0.1,0.7,0.2
		c0,0,0.2,0.2,0.6,0.6c0.2,0.1,0.4,0.1,0.4,0.1c0,0,0.3-0.1,0.9-0.4c0,0,0.1,0,0.2,0c0.3,0,0.6,0.2,0.9,0.5c0.3,0.3,0.6,0.7,0.7,1.3
		c-0.3,0.3-0.9,0.8-1.8,1.4c-0.4,0.6-0.8,0.9-1,0.9c-0.3,0-0.8-0.3-1.3-1c-0.4,0-0.7,0.1-0.9,0.1c-0.3,0-0.7-0.1-1.3-0.4
		c-0.5-0.2-1-0.3-1.5-0.4c-0.2,0.4-0.5,0.6-1,0.7c-0.6,0-0.9,0.1-1.1,0.1l-1.2,0.4c-0.1,0-0.2-0.1-0.5-0.2c-0.4,0.4-1.1,0.9-2.1,1.6
		c-0.6,0.5-1,1.3-0.9,2.5v0.1c0,0.2,0,0.6,0,1c0,0.4,0,0.7,0,0.9c0,0.2-0.2,0.6-0.7,1c0.3,0.4,0.5,0.7,0.5,0.9c0,0.1,0,0.3-0.1,0.5
		l0.5,0.1l0.1,0.9l0.2,5.4l-0.1,0.3l-0.8,0.4c-1.1,0.2-1.7,0.4-1.7,0.5s0.6,0.2,1.9,0.4l0.5-0.1c0.2,0.7,0.3,1.1,0.3,1.4
		c0,0.5-0.2,0.8-0.7,1.1c-0.2,0.1-0.7,0.2-1.5,0.3c-0.2,0-0.6,0.3-1.3,0.8c-0.1,0.1-0.3,0.1-0.4,0.1c-0.5,0-0.7-0.2-0.7-0.6
		c0-0.1,0.2-0.7,0.5-1.7c0-0.1,0.1-0.2,0.1-0.4c0,0-0.1-0.5-0.2-1.4c0-0.1,0-0.2,0.1-0.5l0.7-0.2c0-0.2,0-0.3,0-0.5
		c0-0.3-0.2-0.6-0.5-0.9c0-0.3,0-0.5,0-0.8c0-0.2-0.1-0.7-0.2-1.4c0.1-0.7,0.1-1.2,0.1-1.7c0.7-0.3,1.1-0.6,1.1-1
		c0-0.1,0-0.3-0.1-0.5c-0.2,0.1-0.4,0.1-0.6,0.1c-0.1,0-0.3-0.1-0.5-0.2c0-0.4,0-0.9,0-1.3v-0.6v-0.8v-0.2c0-0.2,0-0.3,0-0.5
		c0-0.2,0-0.4,0-0.5c0-0.3,0.1-0.8,0.4-1.3c-0.3-0.2-0.4-0.4-0.5-0.6c0-0.1-0.1-0.7-0.1-2C14.2,304,14,303.6,13.6,303z"/>
	<path class="st3" d="M40.2,313c0.2-0.4,0.5-0.6,0.7-0.8c0.2-0.1,0.8-0.3,1.8-0.5c0.8-0.4,1.3-0.6,1.5-0.7c0.2,0,0.8-0.1,1.8-0.2
		l1-0.3l0.6-0.1l0.5-0.1h1.2l2.4-0.3c0.7-0.1,1.2-0.2,1.3-0.3c0.4-0.3,0.5-0.6,0.5-1.2c0-0.1-0.1-0.4-0.2-1l1.6-2
		c0,0-0.6-0.2-1.9-0.6c-0.1,0-0.4-0.1-0.9-0.1c-0.9-1.1-1.4-1.7-1.5-1.9c-0.2-0.1-1-0.2-2.3-0.4h-1c-0.4-0.1-0.7-0.2-0.9-0.2
		c-0.2,0-0.4,0-0.7,0.1l-0.6-0.7c-0.4,0.2-0.8,0.4-1,0.7c-0.2,0.2-0.5,0.4-0.9,0.6c-1.1,0.4-1.9,0.9-2.6,1.5l-0.4,0.3
		c-0.3,0.4-0.4,0.6-0.5,0.6c-0.2,0.1-0.5,0.2-0.9,0.2c-0.1,0-0.5-0.1-1.1-0.3c-0.7-0.2-1.1-0.3-1.3-0.4c-0.2-0.1-0.4-0.4-0.7-0.8
		c0.3-0.3,0.6-0.5,0.7-0.6c0.3-0.3,0.6-0.5,0.7-0.5l1.4-0.3l0.9-0.5l1.9-0.6l1.2-0.5h1.2l1.4-0.4l0.6,0l1.1-0.2c1,0,1.6,0,1.9,0
		c0.3,0,0.8,0.2,1.6,0.4l0.7,0.1c0.8,0.1,1.3,0.2,1.7,0.3c0.3,0,0.6,0.2,1.1,0.7c-0.3,0.3-0.5,0.6-0.5,0.8c0,0.3,0.1,0.4,0.4,0.4
		c0.2,0,0.4-0.1,0.7-0.2c0.2-0.1,0.5-0.2,0.9-0.3c0.3,0.3,0.4,0.6,0.4,1l0.8,0.5c0,0.2,0.1,0.4,0.1,0.4l-0.1,1.2
		c0.2,0.9,0.4,1.4,0.7,1.7h0.1c0.1,0.4,0.1,0.9,0.2,1.5c0.1,1.2,0.1,2,0.1,2.3c-0.5,0.3-0.7,0.6-0.7,0.8c0,0.3,0.3,0.6,0.8,0.8
		c0,0.3,0,0.5,0,0.7c0,0.2,0,0.5-0.1,1.1c0,0.2,0,0.4,0,0.7c0,0.7,0.1,1.5,0.3,2.5c-0.4,0.4-0.5,0.7-0.5,1.1c0,0.3,0.2,0.7,0.5,1.2
		c0,0.1,0.1,0.3,0.2,0.6c0.1,0.1,0.2,0.4,0.3,0.8c-0.2,0.3-0.4,0.5-0.5,0.8c-0.2,0.1-0.5,0.3-0.9,0.5l-1.2,0.5l-0.7,0.2
		c-0.7,0.3-1.2,0.4-1.2,0.4c-0.2,0-0.4-0.1-0.7-0.3l0.5-2c-0.6,0.1-1.4,0.5-2.6,0.9l-0.9,0.2c-0.5,0.1-0.8,0.2-0.8,0.2l-1.1-0.1
		l-1.1,0.6l-0.6,0.1l-2.5,0.5l-1.3-0.1c-0.6,0.2-1.1,0.3-1.3,0.3c-0.3,0-1.1-0.1-2.4-0.4l-1.3-0.1l-0.9-0.4
		c-0.7-0.3-1.2-0.5-1.6-0.8c-0.3-0.2-0.5-0.6-0.7-1.2l-0.7-0.2c-0.1-0.2-0.2-0.6-0.3-1.1l-0.3-1.3v0c0-0.2,0.1-0.5,0.4-0.9
		c0.2-0.3,0.5-0.8,0.9-1.5c1-1,1.7-1.6,2-1.9c0.3-0.2,0.9-0.5,1.9-0.9c0.6-0.4,0.9-0.5,1.1-0.5C39.8,313,40,313,40.2,313z
		 M38.3,319.5c-0.2,0.3-0.3,0.5-0.5,0.8c-0.2,0.4-0.3,0.6-0.3,0.7l0.3,0.6l0.9-0.7c0.7,0.5,1.2,0.8,1.4,0.8c0.7,0.2,1.2,0.3,1.2,0.3
		c0.1,0.1,0.3,0.3,0.5,0.6c0.5,0.1,0.8,0.1,0.9,0.1c0.2,0,0.3,0,0.4,0c0.2,0,0.5-0.1,0.8-0.4c0.3,0.2,0.5,0.3,0.7,0.3
		c0,0,0.3-0.1,0.7-0.4l0.9,0.2l1.6-0.6l0.8-0.4l0.7,0.1l1.2-0.5l1.3-0.5c0.3-0.5,0.6-0.8,0.6-0.9c0.2-0.2,0.5-0.3,1.1-0.5l0.2-1
		c0.4-0.2,0.6-0.5,0.7-0.9c-0.3-0.2-0.5-0.4-0.6-0.6c0-0.3,0-0.6,0-0.8v-0.5c0-0.5,0-1-0.1-1.4c0-0.1,0-0.2,0-0.3
		c0-0.2,0.1-0.6,0.2-1.1c-0.2,0-0.4-0.1-0.7-0.4l-1.3,0l-1.2-0.1l-0.9,0h-0.6c-0.1,0-0.4-0.2-0.9-0.5l-0.7,0.2
		c-0.8,0-1.4,0.1-1.8,0.2c-0.2,0.1-0.4,0.2-0.6,0.2c0,0-0.3-0.1-0.7-0.2c0,0,0,0-0.1,0c-0.1,0-0.4,0.2-1,0.5
		c-0.1,0.1-0.6,0.3-1.6,0.6c-1.3,0.6-2.2,1.1-2.8,1.6c-0.1,0.1-0.3,0.4-0.7,0.9c-0.1,0.2-0.5,0.4-1.1,0.5c-0.1,0.1-0.1,0.3-0.1,0.3
		c0,0.1,0.1,0.2,0.2,0.4l0.2,1.6C37.9,318.9,38,319.2,38.3,319.5z"/>
	<path class="st3" d="M66.4,274.7c0.3-0.1,0.6-0.2,0.8-0.3c0.5-0.3,0.9-0.5,1.1-0.6c0.5-0.2,1.1-0.6,1.5-1.2c0.1,0,0.2,0,0.3,0
		c0.5,0,0.7,0.3,0.7,0.8v0.1c0,0.1,0,0.3,0,0.4c0,0.1,0,0.2,0,0.2l0.3,1.1l-0.1,2.6c0,1.6,0,2.5-0.1,2.6c0,0.2-0.2,0.5-0.5,0.8
		l-0.2,1l0.6,0.1c0.1,0.5,0.2,0.9,0.2,1.1c0,0.4-0.2,0.8-0.6,1.2c0,0.6-0.1,0.9-0.1,1.1c0,0.2,0.1,0.4,0.4,0.7c0,0.4,0,0.7,0,0.9
		l-0.2,3.8v3.9c0,0.2-0.2,0.6-0.5,1.2c-0.1,0.2-0.2,0.4-0.2,0.6c0,0,0.1,0.5,0.4,1.5c0,0,0,0.1,0,0.2c0,0.3-0.2,0.6-0.6,1l0.7,1.5
		l0.3,0.2v1.9l0.1,6.8l-0.5,0.3c0.1,0.4,0.1,0.8,0.1,1.1c0,0.1-0.1,0.6-0.2,1.5c0,0,0,0.3,0,0.8l0.9,0.1l-0.1,0.2l0.5,5l-0.1,1.3
		l0.2,0.9c-0.4,0.6-0.6,1-0.6,1.1c0,0.1,0.1,0.2,0.2,0.4c-0.4,0.2-1,0.5-1.7,0.9c-0.4,0.2-0.7,0.4-0.7,0.4c-0.1,0-0.2,0-0.6,0
		c-0.5,0.4-0.9,0.6-1.2,0.6c-0.1,0-0.2,0-0.4-0.1c0-0.3,0-0.6,0-0.8c0-0.2,0-0.5-0.1-0.9c0-0.2-0.1-0.3-0.1-0.5
		c0-0.1,0.1-0.4,0.2-0.9l0.1-0.7l0.1-0.9l-0.1-0.6l2.6-1.6l-2.5-1.7l0.1-0.4l0.2-1.1l0.3-0.8c0,0-0.2-0.4-0.5-1.1
		c-0.1-0.1-0.1-0.2-0.1-0.3c0-0.1,0.2-0.5,0.5-1.3c0.2-0.6,0.3-1.1,0.4-1.6l-0.7-0.4c0-0.5,0-0.9,0-1c0-0.5-0.1-0.8-0.1-0.9
		c0-0.1,0.1-0.5,0.3-1.3c0-0.1,0-0.2,0-0.5c0-0.7,0-1.5-0.1-2.4c0-0.3-0.1-0.6-0.1-0.9c0-0.2,0.2-0.7,0.5-1.4c0-0.6,0.1-1.1,0.2-1.5
		l-0.6-0.8v-6.7c0.3-0.2,0.4-0.4,0.5-0.6c0.1-0.3,0.3-0.7,0.5-1.2c-0.4-0.2-0.8-0.3-1-0.5c0.1-0.6,0.2-0.9,0.2-1.1
		c0-0.2-0.2-0.4-0.5-0.6c-0.1-0.3-0.1-0.6-0.1-1.1l0-1.2c0-0.2,0.1-0.5,0.4-0.9c0.1-0.1,0.1-0.2,0.1-0.2c0,0-0.1-0.2-0.2-0.6
		c-0.1-0.4-0.2-0.5-0.2-0.6l-0.1-0.2l2.3-1.6l-1.5-2.1c-0.8-1.1-1.2-1.7-1.2-1.9c0-0.2,0.1-0.5,0.2-1
		C66.3,275.5,66.3,275.2,66.4,274.7z"/>
</g>
</svg>
